<svg width="200" height="200" viewBox="0 0 200 200" fill="none" xmlns="http://www.w3.org/2000/svg">
<g clip-path="url(#clip0_335_6636)">
<path d="M98.3784 19.5811L104.816 44.7094L82.6085 58.0055L76.1714 32.8771L98.3784 19.5811Z" fill="#C8D68F" stroke="#263238" stroke-linejoin="round"/>
<path d="M82.6084 58.0056L63.9811 50.4242L57.544 25.2959L76.1713 32.8772L82.6084 58.0056Z" fill="#3A85A8" stroke="#263238" stroke-linejoin="round"/>
<path d="M76.1713 32.8774L57.544 25.2961L79.7446 12L98.3783 19.5813L76.1713 32.8774Z" fill="#86D0A7" stroke="#263238" stroke-linejoin="round"/>
<path d="M118.872 89.7183L125.309 114.847L103.109 128.149L96.6653 103.021L118.872 89.7183Z" fill="#C8D68F" stroke="#263238" stroke-linejoin="round"/>
<path d="M103.109 128.149L84.475 120.568L78.0379 95.4395L96.6652 103.021L103.109 128.149Z" fill="#3A85A8" stroke="#263238" stroke-linejoin="round"/>
<path d="M96.6652 103.021L78.0379 95.4397L100.245 82.1372L118.872 89.7185L96.6652 103.021Z" fill="#86D0A7" stroke="#263238" stroke-linejoin="round"/>
<path d="M183.557 117.928L190 143.056L167.793 156.352L161.349 131.224L183.557 117.928Z" fill="#C8D68F" stroke="#263238" stroke-linejoin="round"/>
<path d="M167.793 156.352L149.166 148.771L142.722 123.643L161.349 131.224L167.793 156.352Z" fill="#3A85A8" stroke="#263238" stroke-linejoin="round"/>
<path d="M161.349 131.224L142.722 123.642L164.929 110.346L183.556 117.928L161.349 131.224Z" fill="#86D0A7" stroke="#263238" stroke-linejoin="round"/>
<path d="M62.4405 122.102L68.8648 147.39L46.6577 160.789L40.2334 135.5L62.4405 122.102Z" fill="#C8D68F" stroke="#263238" stroke-linejoin="round"/>
<path d="M46.6577 160.788L28.0368 153.169L21.6188 127.88L40.2334 135.5L46.6577 160.788Z" fill="#3A85A8" stroke="#263238" stroke-linejoin="round"/>
<path d="M40.2334 135.5L21.6188 127.88L43.8259 114.482L62.4404 122.102L40.2334 135.5Z" fill="#86D0A7" stroke="#263238" stroke-linejoin="round"/>
<path d="M40.8344 53.1475L47.2779 78.2758L25.0709 91.5719L18.6274 66.4436L40.8344 53.1475Z" stroke="#263238" stroke-linejoin="round"/>
<path d="M25.0708 91.572L6.4371 83.9906L0 58.8623L18.6273 66.4436L25.0708 91.572Z" stroke="#263238" stroke-linejoin="round"/>
<path d="M18.6273 66.4433L0 58.862L22.207 45.5659L40.8343 53.1473L18.6273 66.4433Z" stroke="#263238" stroke-linejoin="round"/>
<path d="M127.572 149.723L134.009 174.851L111.809 188.148L105.365 163.019L127.572 149.723Z" stroke="#263238" stroke-linejoin="round"/>
<path d="M111.809 188.148L93.1749 180.566L86.7378 155.438L105.365 163.019L111.809 188.148Z" stroke="#263238" stroke-linejoin="round"/>
<path d="M105.365 163.019L86.7378 155.438L108.945 142.142L127.572 149.723L105.365 163.019Z" stroke="#263238" stroke-linejoin="round"/>
<path d="M168.189 47.0557L174.633 72.1776L152.426 85.4801L145.982 60.3518L168.189 47.0557Z" stroke="#263238" stroke-linejoin="round"/>
<path d="M152.426 85.4802L133.792 77.8988L127.355 52.7705L145.982 60.3518L152.426 85.4802Z" stroke="#263238" stroke-linejoin="round"/>
<path d="M145.982 60.3515L127.355 52.7702L149.562 39.4741L168.189 47.0555L145.982 60.3515Z" stroke="#263238" stroke-linejoin="round"/>
<path d="M111.886 109.004C111.886 109.541 111.451 109.982 110.907 109.982C110.364 109.982 109.929 109.547 109.929 109.004C109.929 108.461 110.364 108.026 110.907 108.026C111.451 108.026 111.886 108.461 111.886 109.004Z" fill="#263238"/>
<path d="M99.3499 93.854C99.3499 94.391 98.9152 94.832 98.3718 94.832C97.8285 94.832 97.3938 94.3974 97.3938 93.854C97.3938 93.3107 97.8285 92.876 98.3718 92.876C98.9152 92.876 99.3499 93.3107 99.3499 93.854Z" fill="#263238"/>
<path d="M91.468 112.347C91.468 112.884 91.0333 113.325 90.49 113.325C89.9466 113.325 89.512 112.891 89.512 112.347C89.512 111.804 89.9466 111.369 90.49 111.369C91.0333 111.369 91.468 111.804 91.468 112.347Z" fill="#263238"/>
<path d="M41.7422 125.809C41.7422 126.346 41.3075 126.787 40.7642 126.787C40.2208 126.787 39.7862 126.352 39.7862 125.809C39.7862 125.266 40.2208 124.831 40.7642 124.831C41.3075 124.831 41.7422 125.266 41.7422 125.809Z" fill="#263238"/>
<path d="M164.833 120.069C164.833 120.606 164.398 121.047 163.855 121.047C163.312 121.047 162.877 120.612 162.877 120.069C162.877 119.525 163.312 119.091 163.855 119.091C164.398 119.091 164.833 119.525 164.833 120.069Z" fill="#263238"/>
<path d="M72.9879 43.2651C72.9879 43.8021 72.5533 44.2432 72.0099 44.2432C71.4666 44.2432 71.0319 43.8085 71.0319 43.2651C71.0319 42.7218 71.4666 42.2871 72.0099 42.2871C72.5533 42.2871 72.9879 42.7218 72.9879 43.2651Z" fill="#263238"/>
<path d="M157.354 142.333C157.354 142.87 156.92 143.312 156.376 143.312C155.833 143.312 155.398 142.877 155.398 142.333C155.398 141.79 155.833 141.355 156.376 141.355C156.92 141.355 157.354 141.79 157.354 142.333Z" fill="#263238"/>
<path d="M155.123 83.7544L163.855 120.069" stroke="#263238" stroke-linejoin="round"/>
<path d="M111.01 109.004L144.467 123.035" stroke="#263238" stroke-linejoin="round"/>
<path d="M72.0162 43.2651L42.2982 59.604" stroke="#263238" stroke-linejoin="round"/>
<path d="M88.8599 54.2725L98.3781 93.8539" stroke="#263238" stroke-linejoin="round"/>
<path d="M156.376 142.334L129.362 157.855" stroke="#263238" stroke-linejoin="round"/>
<path d="M55.409 140.889L86.7379 155.438" stroke="#263238" stroke-linejoin="round"/>
<path d="M64.0961 127.625L90.4902 112.347" stroke="#263238" stroke-linejoin="round"/>
<path d="M40.7705 125.81L31.5847 87.7178" stroke="#263238" stroke-linejoin="round"/>
</g>
<defs>
<clipPath id="clip0_335_6636">
<rect width="200" height="200" fill="white"/>
</clipPath>
</defs>
</svg>
