<svg width="200" height="200" viewBox="0 0 200 200" fill="none" xmlns="http://www.w3.org/2000/svg">
<path d="M98.6246 150.432C91.6269 150.432 84.8384 149.062 78.4477 146.358C75.3764 145.059 72.4135 143.451 69.6425 141.579C66.8979 139.725 64.3167 137.595 61.9712 135.249C59.6257 132.904 57.4959 130.323 55.6419 127.578C53.7697 124.807 52.1617 121.844 50.8624 118.773C48.1592 112.382 46.7888 105.594 46.7888 98.5961C46.7888 92.8066 47.7362 87.1218 49.6051 81.6991C51.412 76.4566 54.0429 71.5558 57.4262 67.1328L57.802 67.4208C50.907 76.436 47.2622 87.2161 47.2622 98.5961C47.2622 126.918 70.3031 149.959 98.6246 149.959C106.452 149.959 113.967 148.244 120.959 144.861L121.165 145.288C117.723 146.952 114.09 148.234 110.368 149.096C106.541 149.982 102.59 150.432 98.6246 150.432Z" fill="#263238"/>
<path d="M129.255 140.417L128.975 140.035C130.954 138.583 132.845 136.976 134.595 135.258L134.927 135.596C133.161 137.33 131.252 138.952 129.255 140.417Z" fill="#263238"/>
<path d="M144.411 122.919L143.994 122.696C147.915 115.33 149.988 106.997 149.988 98.5956C149.988 70.2741 126.947 47.2331 98.6253 47.2331C88.6298 47.2331 78.9411 50.1062 70.606 55.5418L70.347 55.1453C78.759 49.6593 88.5375 46.7598 98.6253 46.7598C105.623 46.7598 112.411 48.1301 118.802 50.8334C121.874 52.1327 124.836 53.7407 127.607 55.6128C130.352 57.4669 132.933 59.5967 135.279 61.9422C137.624 64.2876 139.754 66.8688 141.608 69.6134C143.48 72.3845 145.088 75.3473 146.387 78.4187C149.091 84.8094 150.461 91.5979 150.461 98.5962C150.461 102.907 149.931 107.194 148.885 111.334C147.869 115.355 146.364 119.253 144.412 122.92L144.411 122.919Z" fill="#263238"/>
<path d="M138.475 131.749L138.11 131.446C139.24 130.089 140.311 128.66 141.292 127.2L141.685 127.464C140.695 128.938 139.615 130.38 138.475 131.749Z" fill="#263238"/>
<path d="M61.9854 62.6002L61.6477 62.2683C63.1769 60.7119 64.8172 59.2402 66.5234 57.8931L66.8166 58.265C65.1259 59.5999 63.4998 61.0587 61.9848 62.6008L61.9854 62.6002Z" fill="#263238"/>
<path d="M79.2085 163.637C76.3767 162.793 73.574 161.752 70.8772 160.541L71.0709 160.109C73.7484 161.311 76.5317 162.345 79.3434 163.183L79.2078 163.637H79.2085Z" fill="#263238"/>
<path d="M54.8612 150.46C51.1809 147.351 47.8221 143.842 44.8787 140.03C41.9145 136.19 39.3598 132.028 37.2862 127.66C35.1745 123.211 33.5497 118.522 32.457 113.724C31.334 108.791 30.7644 103.701 30.7644 98.5948C30.7644 98.4185 30.7651 98.2422 30.7663 98.0659L31.2397 98.0692C31.2384 98.2442 31.2378 98.4192 31.2378 98.5942C31.2378 118.48 39.9597 137.253 55.1667 150.097L54.8612 150.458V150.46Z" fill="#263238"/>
<path d="M67.0639 158.685C64.7753 157.48 62.5318 156.13 60.3969 154.671L60.6642 154.28C62.785 155.729 65.0123 157.07 67.2848 158.267L67.0639 158.686V158.685Z" fill="#263238"/>
<path d="M98.6247 166.456C93.4513 166.456 88.2967 165.871 83.3035 164.719L83.41 164.257C88.3684 165.401 93.4875 165.982 98.6247 165.982C135.782 165.982 166.012 135.752 166.012 98.5948C166.012 89.8283 164.354 81.302 161.084 73.2529L161.522 73.0747C164.815 81.1806 166.485 89.7669 166.485 98.5948C166.485 103.199 166.021 107.8 165.106 112.271C164.214 116.628 162.884 120.914 161.152 125.009C159.451 129.031 157.346 132.909 154.895 136.537C152.468 140.13 149.68 143.509 146.609 146.58C143.538 149.65 140.159 152.438 136.566 154.866C132.938 157.317 129.06 159.422 125.039 161.123C120.943 162.855 116.658 164.186 112.3 165.077C107.83 165.992 103.228 166.456 98.6247 166.456Z" fill="#263238"/>
<path d="M145.002 49.7069C143.822 48.5871 142.585 47.4951 141.325 46.4619L141.625 46.0957C142.894 47.1367 144.14 48.2358 145.328 49.3634L145.002 49.7069Z" fill="#263238"/>
<path d="M37.5683 70.0426L37.1395 69.8418C39.826 64.1072 43.3074 58.7717 47.4876 53.9839C51.6471 49.2193 56.4427 45.0611 61.7407 41.6242C72.7216 34.4999 85.4758 30.7344 98.6246 30.7344C105.667 30.7344 112.608 31.8083 119.255 33.9271C125.686 35.9769 131.767 38.9785 137.329 42.8467L137.058 43.2355C125.746 35.3666 112.455 31.2077 98.6246 31.2077C72.5853 31.2077 48.619 46.4515 37.5683 70.042V70.0426Z" fill="#263238"/>
<path d="M157.049 64.9943C154.716 60.9453 151.948 57.1248 148.823 53.6376L149.175 53.3218C152.323 56.8329 155.11 60.6811 157.459 64.758L157.049 64.9943Z" fill="#263238"/>
<path d="M32.5636 85.2304L32.0992 85.1368C32.6759 82.2702 33.447 79.4145 34.3911 76.6499L34.8393 76.803C33.9016 79.5482 33.1357 82.3832 32.5636 85.2298V85.2304Z" fill="#263238"/>
<path d="M87.0657 16.1746L87.0005 15.7057C90.8255 15.1742 94.737 14.9043 98.6252 14.9043C99.4512 14.9043 100.28 14.9166 101.091 14.9405L101.077 15.4138C100.271 15.3899 99.4467 15.3783 98.6252 15.3783C94.7589 15.3783 90.8694 15.6463 87.0657 16.1752V16.1746Z" fill="#263238"/>
<path d="M98.6247 182.286C82.4265 182.286 66.7113 177.652 53.1789 168.884C46.65 164.654 40.7379 159.535 35.6084 153.67C30.4538 147.776 26.158 141.209 22.84 134.148L23.2688 133.947C36.9329 163.024 66.5124 181.812 98.6253 181.812C101.578 181.812 104.556 181.656 107.473 181.347L107.522 181.818C104.588 182.128 101.595 182.286 98.6253 182.286L98.6247 182.286Z" fill="#263238"/>
<path d="M20.8477 129.556C16.9233 119.707 14.9336 109.29 14.9336 98.5954C14.9336 89.2755 16.4551 80.1215 19.4554 71.3892C22.3562 62.9468 26.5822 55.0502 32.0152 47.9194L32.3917 48.2062C21.2797 62.7886 15.407 80.2125 15.407 98.5948C15.407 109.23 17.3856 119.587 21.2875 129.381L20.8477 129.556V129.556Z" fill="#263238"/>
<path d="M35.0078 44.9457L34.6461 44.6403C39.8912 38.4266 45.9938 33.0175 52.7843 28.5641C59.678 24.043 67.171 20.579 75.0561 18.269L75.1891 18.7237C59.5056 23.3178 45.6109 32.3852 35.0078 44.9457Z" fill="#263238"/>
<path d="M122.819 178.735L122.682 178.282C150.725 169.827 172.477 146.915 179.449 118.487L179.909 118.6C178.171 125.687 175.501 132.526 171.973 138.928C168.508 145.215 164.236 151.048 159.275 156.264C154.323 161.471 148.72 166.025 142.623 169.801C136.432 173.634 129.77 176.64 122.818 178.736L122.819 178.735Z" fill="#263238"/>
<path d="M181.494 110.369L181.025 110.303C181.567 106.451 181.842 102.512 181.842 98.5952C181.842 61.2024 156.685 28.1957 120.665 18.3282L120.79 17.8716C129.545 20.27 137.813 24.0685 145.365 29.1625C152.801 34.1783 159.358 40.321 164.852 47.4207C170.403 54.5941 174.722 62.556 177.689 71.0855C180.759 79.9095 182.316 89.1649 182.316 98.5946C182.316 102.533 182.039 106.494 181.494 110.369V110.369Z" fill="#263238"/>
<path d="M114.959 16.9807C112.317 16.4551 109.614 16.0534 106.925 15.7873L106.971 15.3159C109.676 15.5833 112.395 15.9875 115.051 16.5164L114.959 16.9807Z" fill="#263238"/>
<path d="M68.519 67.9414V64.9285H66.5618C66.4651 64.3569 66.291 63.8091 66.0493 63.3012L67.5423 62.0368L65.5958 59.7381L64.122 60.9864C63.5343 60.5568 62.8653 60.2322 62.1433 60.0335V57.939H59.1334V59.9714C58.3762 60.1463 57.6726 60.4601 57.0496 60.8867L55.8037 59.7189L53.7444 61.9125L55.0602 63.1477C54.7809 63.6955 54.5799 64.2886 54.4748 64.9169C54.4725 64.9223 54.4664 64.9277 54.4587 64.9277H52.5145V67.9406H54.695L55.1837 69.0362L53.739 70.2607L55.6855 72.5594L57.3182 71.1737C57.8361 71.4906 58.4053 71.7323 59.0122 71.885V73.9473H62.0221V71.885C62.6021 71.7399 63.1499 71.509 63.6517 71.2113L65.4777 72.9246L67.5369 70.728L65.7808 69.0823C65.9956 68.7224 66.1728 68.3411 66.3124 67.9414H68.5198H68.519ZM60.5145 69.3539C58.6324 69.3539 57.1041 67.8255 57.1041 65.9435C57.1041 64.0615 58.6317 62.5332 60.5145 62.5332C62.3973 62.5332 63.9248 64.0615 63.9248 65.9435C63.9248 67.8255 62.3996 69.3539 60.5145 69.3539Z" fill="#A399F0"/>
<path d="M62.0231 74.35H59.0132C58.7907 74.35 58.6104 74.1697 58.6104 73.9472V72.191C58.1761 72.0591 57.7588 71.8826 57.3629 71.6647L55.9473 72.8662C55.866 72.9353 55.7601 72.9682 55.6535 72.9606C55.5468 72.9514 55.4486 72.9007 55.3788 72.8194L53.4323 70.5208C53.2889 70.3512 53.3096 70.0973 53.4791 69.953L54.6929 68.9242L54.4336 68.3434H52.5147C52.2922 68.3434 52.1119 68.1631 52.1119 67.9406V64.9276C52.1119 64.7052 52.2922 64.5249 52.5147 64.5249H54.1405C54.2372 64.0845 54.3814 63.654 54.5694 63.239L53.4692 62.2063C53.3909 62.1334 53.3456 62.0321 53.3426 61.9255C53.3395 61.8188 53.3786 61.7152 53.4515 61.637L55.5108 59.4435C55.6627 59.2816 55.9174 59.2731 56.0801 59.4251L57.0959 60.3772C57.6069 60.0626 58.1554 59.8217 58.7316 59.6591V57.9389C58.7316 57.7164 58.9119 57.5361 59.1344 57.5361H62.1443C62.3668 57.5361 62.5471 57.7164 62.5471 57.9389V59.7335C63.0979 59.913 63.6174 60.1631 64.0984 60.4792L65.3367 59.4304C65.4181 59.3614 65.5224 59.3276 65.6306 59.3361C65.7372 59.3453 65.8354 59.3959 65.9045 59.4772L67.8509 61.7759C67.9944 61.9454 67.9737 62.2001 67.8041 62.3436L66.5421 63.4124C66.6924 63.7714 66.8106 64.1435 66.895 64.5249H68.5207C68.7432 64.5249 68.9235 64.7052 68.9235 64.9276V67.9406C68.9235 68.1631 68.7432 68.3434 68.5207 68.3434H66.5935C66.5029 68.5697 66.4009 68.7907 66.2881 69.004L67.8134 70.4341C67.8916 70.507 67.9369 70.6082 67.9407 70.7149C67.9446 70.8215 67.9054 70.9251 67.8318 71.0034L65.7725 73.2C65.6996 73.2782 65.5984 73.3235 65.4917 73.3265C65.3866 73.3335 65.2815 73.2913 65.2032 73.2176L63.5928 71.7069C63.2176 71.9072 62.8271 72.0691 62.4258 72.191V73.9465C62.4258 74.169 62.2455 74.3493 62.0231 74.3493V74.35ZM59.416 73.5444H61.6203V71.8849C61.6203 71.7 61.7461 71.5389 61.9256 71.4944C62.455 71.3617 62.9667 71.1507 63.4478 70.8645C63.602 70.7732 63.7984 70.7947 63.9289 70.9174L65.461 72.3552L66.9694 70.7463L65.5071 69.3761C65.369 69.2464 65.3398 69.0385 65.4365 68.8758C65.6352 68.5421 65.8024 68.183 65.9336 67.8086C65.9896 67.6467 66.1423 67.5385 66.3142 67.5385H68.1187V65.3312H66.5643C66.3679 65.3312 66.1999 65.1893 66.1669 64.9959C66.0771 64.4665 65.916 63.9548 65.6874 63.4753C65.6083 63.3103 65.6513 63.1131 65.7902 62.995L66.9755 61.9907L65.5492 60.3066L64.3823 61.2948C64.2404 61.4153 64.034 61.4222 63.8844 61.3124C63.3281 60.9066 62.7067 60.6066 62.0361 60.4225C61.8612 60.3741 61.7399 60.2153 61.7399 60.0342V58.3425H59.5357V59.9721C59.5357 60.1601 59.406 60.3227 59.2234 60.3642C58.5252 60.5253 57.87 60.813 57.2769 61.2196C57.1212 61.3263 56.9117 61.3101 56.7736 61.1813L55.8215 60.289L54.3131 61.8955L55.3351 62.8554C55.4655 62.9781 55.4993 63.1722 55.4179 63.3318C55.1502 63.8566 54.966 64.4128 54.8709 64.9844C54.8648 65.0213 54.8533 65.0573 54.8371 65.0911C54.7704 65.2315 54.6124 65.3312 54.4574 65.3312H52.916V67.5385H54.6937C54.8525 67.5385 54.9967 67.6321 55.0612 67.7772L55.5499 68.8728C55.6228 69.0362 55.5791 69.228 55.4425 69.3438L54.3055 70.3083L55.7317 71.9916L57.0567 70.8668C57.1895 70.754 57.379 70.7394 57.5271 70.83C58.0173 71.13 58.5498 71.3532 59.1099 71.4944C59.2886 71.5397 59.4137 71.7 59.4137 71.8849V73.5444H59.416ZM60.517 69.7558C58.4148 69.7558 56.7038 68.0457 56.7038 65.9427C56.7038 63.8397 58.414 62.1296 60.517 62.1296C62.62 62.1296 64.3301 63.8397 64.3301 65.9427C64.3301 68.0457 62.62 69.7558 60.517 69.7558ZM60.517 62.9359C58.859 62.9359 57.5094 64.2847 57.5094 65.9435C57.5094 67.6022 58.8582 68.951 60.517 68.951C62.1757 68.951 63.5245 67.6022 63.5245 65.9435C63.5245 64.2847 62.1757 62.9359 60.517 62.9359Z" fill="#263238"/>
<path d="M85.071 48.8418C81.966 48.8418 79.4487 47.2613 79.4487 45.311V48.8418C79.4487 50.7921 81.966 52.3726 85.071 52.3726C88.176 52.3726 90.6933 50.7921 90.6933 48.8418V45.311C90.6933 47.2613 88.176 48.8418 85.071 48.8418Z" fill="#A6DBFF"/>
<path d="M85.0683 52.7739C81.6902 52.7739 79.0432 51.0461 79.0432 48.8403V45.3095C79.0432 45.087 79.2235 44.9067 79.446 44.9067C79.6685 44.9067 79.8488 45.087 79.8488 45.3095C79.8488 47.0343 82.1904 48.4375 85.0683 48.4375C87.9462 48.4375 90.2878 47.0343 90.2878 45.3095C90.2878 45.087 90.4681 44.9067 90.6906 44.9067C90.9131 44.9067 91.0934 45.087 91.0934 45.3095V48.8403C91.0934 51.0461 88.4472 52.7739 85.0691 52.7739H85.0683ZM79.8488 47.3028V48.8403C79.8488 50.5651 82.1904 51.9684 85.0683 51.9684C87.9462 51.9684 90.2878 50.5651 90.2878 48.8403V47.3028C89.2551 48.4721 87.3247 49.2431 85.0683 49.2431C82.8119 49.2431 80.8823 48.4721 79.8488 47.3028Z" fill="#263238"/>
<path d="M85.071 52.3726C81.966 52.3726 79.4487 50.7921 79.4487 48.8418V52.3726C79.4487 54.3229 81.966 55.9034 85.071 55.9034C88.176 55.9034 90.6933 54.3229 90.6933 52.3726V48.8418C90.6933 50.7921 88.176 52.3726 85.071 52.3726Z" fill="#A6DBFF"/>
<path d="M85.0683 56.3057C81.6902 56.3057 79.0432 54.5779 79.0432 52.3721V48.8413C79.0432 48.6188 79.2235 48.4385 79.446 48.4385C79.6685 48.4385 79.8488 48.6188 79.8488 48.8413C79.8488 50.566 82.1904 51.9693 85.0683 51.9693C87.9462 51.9693 90.2878 50.566 90.2878 48.8413C90.2878 48.6188 90.4681 48.4385 90.6906 48.4385C90.9131 48.4385 91.0934 48.6188 91.0934 48.8413V52.3721C91.0934 54.5779 88.4472 56.3057 85.0691 56.3057H85.0683ZM79.8488 50.8345V52.3713C79.8488 54.0961 82.1904 55.4993 85.0683 55.4993C87.9462 55.4993 90.2878 54.0961 90.2878 52.3713V50.8345C89.2551 52.0038 87.3247 52.7741 85.0683 52.7741C82.8119 52.7741 80.8823 52.0038 79.8488 50.8345Z" fill="#263238"/>
<path d="M85.071 41.7789C81.966 41.7789 79.4487 40.1984 79.4487 38.248V41.7789C79.4487 43.7292 81.966 45.3097 85.071 45.3097C88.176 45.3097 90.6933 43.7292 90.6933 41.7789V38.248C90.6933 40.1984 88.176 41.7789 85.071 41.7789Z" fill="#A6DBFF"/>
<path d="M85.0683 45.7124C81.6902 45.7124 79.0432 43.9846 79.0432 41.7788V38.248C79.0432 38.0255 79.2235 37.8452 79.446 37.8452C79.6685 37.8452 79.8488 38.0255 79.8488 38.248C79.8488 39.9728 82.1904 41.376 85.0683 41.376C87.9462 41.376 90.2878 39.9728 90.2878 38.248C90.2878 38.0255 90.4681 37.8452 90.6906 37.8452C90.9131 37.8452 91.0934 38.0255 91.0934 38.248V41.7788C91.0934 43.9846 88.4472 45.7124 85.0691 45.7124H85.0683ZM79.8488 40.242V41.7788C79.8488 43.5036 82.1904 44.9068 85.0683 44.9068C87.9462 44.9068 90.2878 43.5036 90.2878 41.7788V40.242C89.2551 41.4113 87.3247 42.1816 85.0683 42.1816C82.8119 42.1816 80.8823 41.4113 79.8488 40.242Z" fill="#263238"/>
<path d="M85.071 45.3116C81.966 45.3116 79.4487 43.7311 79.4487 41.7808V45.3116C79.4487 47.2619 81.966 48.8424 85.071 48.8424C88.176 48.8424 90.6933 47.2619 90.6933 45.3116V41.7808C90.6933 43.7311 88.176 45.3116 85.071 45.3116Z" fill="#A6DBFF"/>
<path d="M85.0683 49.2437C81.6902 49.2437 79.0432 47.5159 79.0432 45.3101V41.7793C79.0432 41.5568 79.2235 41.3765 79.446 41.3765C79.6685 41.3765 79.8488 41.5568 79.8488 41.7793C79.8488 43.504 82.1904 44.9073 85.0683 44.9073C87.9462 44.9073 90.2878 43.504 90.2878 41.7793C90.2878 41.5568 90.4681 41.3765 90.6906 41.3765C90.9131 41.3765 91.0934 41.5568 91.0934 41.7793V45.3101C91.0934 47.5159 88.4472 49.2437 85.0691 49.2437H85.0683ZM79.8488 43.7725V45.3093C79.8488 47.034 82.1904 48.4373 85.0683 48.4373C87.9462 48.4373 90.2878 47.034 90.2878 45.3093V43.7725C89.2551 44.9418 87.3247 45.7121 85.0683 45.7121C82.8119 45.7121 80.8823 44.9418 79.8488 43.7725Z" fill="#263238"/>
<path d="M85.071 41.7799C88.1761 41.7799 90.6933 40.1991 90.6933 38.2491C90.6933 36.2991 88.1761 34.7183 85.071 34.7183C81.9659 34.7183 79.4487 36.2991 79.4487 38.2491C79.4487 40.1991 81.9659 41.7799 85.071 41.7799Z" fill="#A6DBFF"/>
<path d="M85.0683 42.1812C81.6902 42.1812 79.0432 40.4534 79.0432 38.2476C79.0432 36.0418 81.6894 34.314 85.0683 34.314C88.4472 34.314 91.0926 36.0418 91.0926 38.2476C91.0926 40.4534 88.4464 42.1812 85.0683 42.1812ZM85.0683 35.1196C82.1904 35.1196 79.8488 36.5228 79.8488 38.2476C79.8488 39.9723 82.1904 41.3756 85.0683 41.3756C87.9462 41.3756 90.2878 39.9723 90.2878 38.2476C90.2878 36.5228 87.9462 35.1196 85.0683 35.1196Z" fill="#263238"/>
<path d="M70.1272 8.40088H52.8V29.499H70.1272V8.40088Z" fill="#A6DBFF"/>
<path d="M70.1285 29.9037H52.8014C52.5789 29.9037 52.3986 29.7234 52.3986 29.5009V8.4028C52.3986 8.1803 52.5789 8 52.8014 8H70.1285C70.351 8 70.5313 8.1803 70.5313 8.4028V29.5009C70.5313 29.7234 70.351 29.9037 70.1285 29.9037ZM53.2042 29.0981H69.7258V8.80559H53.2042V29.0981Z" fill="#263238"/>
<path d="M67.1631 14.3749H55.7689C55.5464 14.3749 55.3661 14.1946 55.3661 13.9721C55.3661 13.7496 55.5464 13.5693 55.7689 13.5693H67.1631C67.3856 13.5693 67.5659 13.7496 67.5659 13.9721C67.5659 14.1946 67.3856 14.3749 67.1631 14.3749Z" fill="#263238"/>
<path d="M67.1631 19.3564H55.7689C55.5464 19.3564 55.3661 19.1761 55.3661 18.9536C55.3661 18.7311 55.5464 18.5508 55.7689 18.5508H67.1631C67.3856 18.5508 67.5659 18.7311 67.5659 18.9536C67.5659 19.1761 67.3856 19.3564 67.1631 19.3564Z" fill="#263238"/>
<path d="M67.1631 24.3339H55.7689C55.5464 24.3339 55.3661 24.1536 55.3661 23.9311C55.3661 23.7086 55.5464 23.5283 55.7689 23.5283H67.1631C67.3856 23.5283 67.5659 23.7086 67.5659 23.9311C67.5659 24.1536 67.3856 24.3339 67.1631 24.3339Z" fill="#263238"/>
<path d="M65.8162 11.5415H48.489V32.6396H65.8162V11.5415Z" fill="white"/>
<path d="M65.8135 33.0441H48.4863C48.2638 33.0441 48.0835 32.8638 48.0835 32.6413V11.5424C48.0835 11.3199 48.2638 11.1396 48.4863 11.1396H65.8135C66.036 11.1396 66.2163 11.3199 66.2163 11.5424V32.6406C66.2163 32.8631 66.036 33.0434 65.8135 33.0434V33.0441ZM48.8891 32.2386H65.4107V11.9452H48.8891V32.2378V32.2386Z" fill="#263238"/>
<path d="M62.8451 17.516H51.4509C51.2284 17.516 51.0481 17.3357 51.0481 17.1132C51.0481 16.8907 51.2284 16.7104 51.4509 16.7104H62.8451C63.0676 16.7104 63.2479 16.8907 63.2479 17.1132C63.2479 17.3357 63.0676 17.516 62.8451 17.516Z" fill="#263238"/>
<path d="M62.8451 22.4955H51.4509C51.2284 22.4955 51.0481 22.3152 51.0481 22.0927C51.0481 21.8702 51.2284 21.6899 51.4509 21.6899H62.8451C63.0676 21.6899 63.2479 21.8702 63.2479 22.0927C63.2479 22.3152 63.0676 22.4955 62.8451 22.4955Z" fill="#263238"/>
<path d="M62.8451 27.4736H51.4509C51.2284 27.4736 51.0481 27.2933 51.0481 27.0708C51.0481 26.8483 51.2284 26.668 51.4509 26.668H62.8451C63.0676 26.668 63.2479 26.8483 63.2479 27.0708C63.2479 27.2933 63.0676 27.4736 62.8451 27.4736Z" fill="#263238"/>
<path d="M85.07 35.1213C84.8475 35.1213 84.6672 34.941 84.6672 34.7185V19.3554H70.1289C69.9064 19.3554 69.7261 19.1751 69.7261 18.9526C69.7261 18.7301 69.9064 18.5498 70.1289 18.5498H85.07C85.2925 18.5498 85.4728 18.7301 85.4728 18.9526V34.7185C85.4728 34.941 85.2925 35.1213 85.07 35.1213Z" fill="#263238"/>
<path d="M85.0702 66.3459H68.5186C68.2961 66.3459 68.1158 66.1656 68.1158 65.9431C68.1158 65.7206 68.2961 65.5403 68.5186 65.5403H84.6674V55.9023C84.6674 55.6798 84.8477 55.4995 85.0702 55.4995C85.2927 55.4995 85.473 55.6798 85.473 55.9023V65.9431C85.473 66.1656 85.2927 66.3459 85.0702 66.3459Z" fill="#263238"/>
<path d="M60.5142 58.3418C60.2917 58.3418 60.1115 58.1615 60.1115 57.939V45.3095C60.1115 45.087 60.2917 44.9067 60.5142 44.9067H79.4473C79.6698 44.9067 79.8501 45.087 79.8501 45.3095C79.8501 45.532 79.6698 45.7123 79.4473 45.7123H60.917V57.939C60.917 58.1615 60.7367 58.3418 60.5142 58.3418Z" fill="#263238"/>
<path d="M52.5118 66.3475H39.4328C39.2103 66.3475 39.03 66.1672 39.03 65.9447V22.0927C39.03 21.8702 39.2103 21.6899 39.4328 21.6899H48.4862C48.7087 21.6899 48.889 21.8702 48.889 22.0927C48.889 22.3152 48.7087 22.4955 48.4862 22.4955H39.8356V65.5419H52.5118C52.7343 65.5419 52.9146 65.7222 52.9146 65.9447C52.9146 66.1672 52.7343 66.3475 52.5118 66.3475Z" fill="#263238"/>
<path d="M39.4324 34.1509L29.4016 44.0144L39.4324 53.8818L49.4632 43.8472L39.4324 34.1509Z" fill="#A399F0"/>
<path d="M39.4336 54.2863C39.3316 54.2863 39.2295 54.248 39.1513 54.1705L29.1205 44.3031C29.0437 44.2271 29 44.1236 29 44.0162C29 43.9087 29.0437 43.8044 29.1205 43.7292L39.1513 33.8657C39.307 33.7122 39.5564 33.7114 39.7136 33.8634L49.7444 43.5596C49.8219 43.6348 49.8664 43.7376 49.8672 43.8458C49.868 43.954 49.8258 44.0576 49.749 44.1343L39.7182 54.1689C39.6392 54.248 39.5364 54.2871 39.4336 54.2871V54.2863ZM29.9775 44.0162L39.4313 53.3165L48.8897 43.8543L39.4359 34.715L29.9775 44.0162Z" fill="#263238"/>
<path d="M20.8354 111.281H47.3725C48.9027 111.281 50.1443 112.524 50.1443 114.053V132.899C50.1443 133.22 49.8836 133.48 49.5634 133.48H18.6361C18.3204 133.48 18.0636 133.223 18.0636 132.908V114.053C18.0636 112.523 19.306 111.281 20.8354 111.281Z" fill="white"/>
<path d="M48.6186 133.886H19.5642C18.5121 133.886 17.6565 133.03 17.6565 131.978V118.552C17.6565 114.319 21.1005 110.875 25.3344 110.875H42.8708C47.1047 110.875 50.5487 114.319 50.5487 118.552V131.955C50.5487 133.019 49.6831 133.886 48.6178 133.886H48.6186ZM25.3344 111.687C21.5484 111.687 18.4688 114.766 18.4688 118.552V131.978C18.4688 132.582 18.96 133.073 19.5642 133.073H48.6186C49.2352 133.073 49.7372 132.571 49.7372 131.955V118.552C49.7372 114.766 46.6576 111.687 42.8716 111.687H25.3351H25.3344Z" fill="#263238"/>
<path d="M44.2544 113.697H24.5836C23.3181 113.697 22.2922 114.723 22.2922 115.988V128.943C22.2922 130.209 23.3181 131.235 24.5836 131.235H44.2544C45.5199 131.235 46.5458 130.209 46.5458 128.943V115.988C46.5458 114.723 45.5199 113.697 44.2544 113.697Z" fill="#A6DBFF"/>
<path d="M40.5355 131.641H28.3066C24.7675 131.641 21.8882 128.762 21.8882 125.223V119.709C21.8882 116.17 24.7675 113.291 28.3066 113.291H40.5355C44.0747 113.291 46.954 116.17 46.954 119.709V125.223C46.954 128.762 44.0747 131.641 40.5355 131.641ZM28.3066 114.103C25.2154 114.103 22.7005 116.618 22.7005 119.709V125.223C22.7005 128.314 25.2154 130.829 28.3066 130.829H40.5355C43.6268 130.829 46.1417 128.314 46.1417 125.223V119.709C46.1417 116.618 43.6268 114.103 40.5355 114.103H28.3066Z" fill="#263238"/>
<path d="M18.0639 118.467L10.673 118.444V111.795C10.673 111.095 10.1006 110.522 9.39971 110.522H8.3368C7.63671 110.522 7.06348 111.095 7.06348 111.795V120.565C7.06348 121.265 7.63671 121.838 8.3368 121.838H18.0639V118.467Z" fill="#A6DBFF"/>
<path d="M18.0633 122.243H8.33616C7.41017 122.243 6.65747 121.489 6.65747 120.563V111.794C6.65747 110.868 7.41095 110.115 8.33616 110.115H9.39907C10.3251 110.115 11.0778 110.869 11.0778 111.794V118.037L18.064 118.059C18.2884 118.059 18.4694 118.243 18.4686 118.467C18.4686 118.69 18.2861 118.871 18.0625 118.871H18.0609L10.6701 118.848C10.4465 118.848 10.2655 118.666 10.2655 118.442V111.794C10.2655 111.316 9.87637 110.927 9.39907 110.927H8.33616C7.85808 110.927 7.46974 111.316 7.46974 111.794V120.563C7.46974 121.041 7.85885 121.431 8.33616 121.431H18.0633C18.2876 121.431 18.4694 121.612 18.4694 121.837C18.4694 122.061 18.2876 122.243 18.0633 122.243Z" fill="#263238"/>
<path d="M13.551 102.299V106.831L9.04103 109.434L4.53023 106.831V102.299L3.40698 102.947V109.452L9.04103 112.704L14.6743 109.452V102.947L13.551 102.299Z" fill="#A399F0"/>
<path d="M9.03941 113.11C8.96901 113.11 8.89939 113.092 8.83673 113.055L3.20268 109.802C3.07736 109.73 3 109.596 3 109.451V102.945C3 102.8 3.07736 102.666 3.20268 102.593L4.32593 101.945C4.45125 101.872 4.60674 101.872 4.73206 101.945C4.85739 102.018 4.93475 102.152 4.93475 102.297V106.594L9.03941 108.964L13.1441 106.594V102.297C13.1441 102.152 13.2214 102.018 13.3467 101.945C13.4721 101.872 13.6276 101.872 13.7529 101.945L14.8761 102.593C15.0015 102.666 15.0788 102.8 15.0788 102.945V109.451C15.0788 109.596 15.0015 109.73 14.8761 109.802L9.24209 113.055C9.17943 113.092 9.10903 113.11 9.03941 113.11ZM3.81149 109.216L9.03941 112.235L14.2673 109.216V103.18L13.9563 103V106.829C13.9563 106.974 13.879 107.108 13.7537 107.181L9.24286 109.785C9.11754 109.857 8.96205 109.857 8.83673 109.785L4.32593 107.181C4.20061 107.108 4.12325 106.974 4.12325 106.829V103L3.81227 103.18V109.216H3.81149Z" fill="#263238"/>
<path d="M50.1448 120.666L57.5357 120.689V127.338C57.5357 128.038 58.1089 128.611 58.809 128.611H59.8719C60.572 128.611 61.1453 128.038 61.1453 127.338V118.568C61.1453 117.868 60.572 117.295 59.8719 117.295H50.0358L50.1448 120.666Z" fill="#A6DBFF"/>
<path d="M59.8711 129.016H58.8082C57.8822 129.016 57.1287 128.263 57.1287 127.338V121.095L50.1424 121.072C49.9181 121.072 49.7371 120.889 49.7379 120.665C49.7379 120.441 49.9204 120.26 50.144 120.26H50.1455L57.5364 120.283C57.76 120.283 57.941 120.466 57.941 120.689V127.338C57.941 127.816 58.3301 128.204 58.8082 128.204H59.8711C60.3492 128.204 60.7383 127.815 60.7383 127.338V118.568C60.7383 118.09 60.3492 117.701 59.8711 117.701H50.0349C49.8106 117.701 49.6288 117.519 49.6288 117.295C49.6288 117.07 49.8106 116.889 50.0349 116.889H59.8711C60.7971 116.889 61.5506 117.642 61.5506 118.568V127.338C61.5506 128.264 60.7971 129.016 59.8711 129.016Z" fill="#263238"/>
<path d="M48.6678 104.152H49.7075C50.1794 104.152 50.5662 103.46 50.5662 102.614V98.5628C50.5662 97.7173 50.1801 97.0249 49.7075 97.0249H48.6415L48.667 104.153L48.6678 104.152Z" fill="#A6DBFF"/>
<path d="M49.7076 104.559H48.6679C48.4436 104.559 48.2618 104.377 48.2618 104.153C48.2618 103.928 48.4436 103.747 48.6679 103.747H49.7076C49.8631 103.747 50.1602 103.306 50.1602 102.615V98.5636C50.1602 97.8728 49.8631 97.4319 49.7076 97.4319H48.6416C48.4173 97.4319 48.2355 97.2501 48.2355 97.0258C48.2355 96.8014 48.4173 96.6196 48.6416 96.6196H49.7076C50.4286 96.6196 50.9724 97.4559 50.9724 98.5636V102.615C50.9724 103.723 50.4286 104.559 49.7076 104.559Z" fill="#263238"/>
<path d="M19.8384 96.4829H18.7531C18.2812 96.4829 17.8944 97.1753 17.8944 98.0208V102.072C17.8944 102.918 18.2804 103.61 18.7531 103.61H19.8191L19.8384 96.4829Z" fill="#A6DBFF"/>
<path d="M19.8172 104.015H18.7511C18.0302 104.015 17.4863 103.179 17.4863 102.071V98.0197C17.4863 96.9112 18.0302 96.0757 18.7511 96.0757H19.8365C20.0608 96.0757 20.2426 96.2575 20.2426 96.4818C20.2426 96.7062 20.0608 96.888 19.8365 96.888H18.7511C18.5957 96.888 18.2986 97.3289 18.2986 98.0197V102.071C18.2986 102.762 18.5957 103.203 18.7511 103.203H19.8172C20.0415 103.203 20.2233 103.385 20.2233 103.609C20.2233 103.833 20.0415 104.015 19.8172 104.015Z" fill="#263238"/>
<path d="M46.8986 91.5952H21.5628C20.5998 91.5952 19.8191 92.3759 19.8191 93.3389V109.529C19.8191 110.492 20.5998 111.273 21.5628 111.273H46.8986C47.8616 111.273 48.6422 110.492 48.6422 109.529V93.3389C48.6422 92.3759 47.8616 91.5952 46.8986 91.5952Z" fill="#A6DBFF"/>
<path d="M44.0672 111.678H24.3932C21.647 111.678 19.4121 109.444 19.4121 106.697V96.1681C19.4121 93.4219 21.6462 91.187 24.3932 91.187H44.0672C46.8134 91.187 49.0475 93.4211 49.0475 96.1681V106.697C49.0475 109.443 46.8134 111.678 44.0672 111.678ZM24.3932 92.0001C22.0949 92.0001 20.2244 93.8698 20.2244 96.1689V106.697C20.2244 108.996 22.0941 110.866 24.3932 110.866H44.0672C46.3655 110.866 48.236 108.997 48.236 106.697V96.1689C48.236 93.8706 46.3663 92.0001 44.0672 92.0001H24.3932Z" fill="#263238"/>
<path d="M44.3912 96.4932H24.069C23.3213 96.4932 22.7152 97.0993 22.7152 97.8469V102.243C22.7152 102.991 23.3213 103.597 24.069 103.597H44.3912C45.1388 103.597 45.7449 102.991 45.7449 102.243V97.8469C45.7449 97.0993 45.1388 96.4932 44.3912 96.4932Z" fill="#A399F0"/>
<path d="M42.1937 104.003H26.2679C24.0856 104.003 22.3102 102.228 22.3102 100.046C22.3102 97.8633 24.0856 96.0879 26.2679 96.0879H42.1937C44.376 96.0879 46.1514 97.8633 46.1514 100.046C46.1514 102.228 44.376 104.003 42.1937 104.003ZM26.2679 96.8994C24.5335 96.8994 23.1224 98.3104 23.1224 100.045C23.1224 101.779 24.5335 103.191 26.2679 103.191H42.1937C43.9281 103.191 45.3391 101.78 45.3391 100.045C45.3391 98.3096 43.9281 96.8994 42.1937 96.8994H26.2679Z" fill="#263238"/>
<path d="M34.2307 110.255C31.7932 110.255 29.624 108.106 29.624 106.412C29.624 106.188 29.8058 106.006 30.0302 106.006C30.2545 106.006 30.4363 106.188 30.4363 106.412C30.4363 107.609 32.1359 109.443 34.2307 109.443C36.3256 109.443 38.0252 107.609 38.0252 106.412C38.0252 106.188 38.207 106.006 38.4313 106.006C38.6557 106.006 38.8375 106.188 38.8375 106.412C38.8375 108.106 36.6683 110.255 34.2307 110.255Z" fill="#263238"/>
<path d="M26.6781 91.596V89.4307C26.6781 88.8683 27.1631 88.4072 27.7565 88.4072H40.9624C41.555 88.4072 42.0408 88.8675 42.0408 89.4307V91.596H26.6789H26.6781Z" fill="#A6DBFF"/>
<path d="M42.0409 92.001C41.8166 92.001 41.6348 91.8192 41.6348 91.5949V89.4296C41.6348 89.0892 41.3331 88.8123 40.9625 88.8123H27.7566C27.3861 88.8123 27.0844 89.0892 27.0844 89.4296V91.5949C27.0844 91.8192 26.9026 92.001 26.6782 92.001C26.4539 92.001 26.2721 91.8192 26.2721 91.5949V89.4296C26.2721 88.6413 26.9382 88 27.7566 88H40.9625C41.781 88 42.4471 88.6413 42.4471 89.4296V91.5949C42.4471 91.8192 42.2653 92.001 42.0409 92.001Z" fill="#263238"/>
<path d="M29.5221 102.239H28.0422C26.9259 102.239 26.0123 101.325 26.0123 100.209C26.0123 99.0928 26.9259 98.1792 28.0422 98.1792H29.5221C30.6384 98.1792 31.552 99.0928 31.552 100.209C31.552 101.325 30.6384 102.239 29.5221 102.239Z" fill="white"/>
<path d="M29.5213 102.645H28.0414C26.6977 102.645 25.6053 101.552 25.6053 100.209C25.6053 98.8665 26.6984 97.7734 28.0414 97.7734H29.5213C30.8642 97.7734 31.9573 98.8665 31.9573 100.209C31.9573 101.552 30.8642 102.645 29.5213 102.645ZM28.0414 98.5857C27.1456 98.5857 26.4176 99.3144 26.4176 100.209C26.4176 101.105 27.1463 101.833 28.0414 101.833H29.5213C30.4163 101.833 31.145 101.105 31.145 100.209C31.145 99.3144 30.4163 98.5857 29.5213 98.5857H28.0414Z" fill="#263238"/>
<path d="M40.8198 102.239H39.34C38.2237 102.239 37.3101 101.325 37.3101 100.209C37.3101 99.0928 38.2237 98.1792 39.34 98.1792H40.8198C41.9361 98.1792 42.8497 99.0928 42.8497 100.209C42.8497 101.325 41.9361 102.239 40.8198 102.239Z" fill="white"/>
<path d="M40.8189 102.645H39.339C37.996 102.645 36.903 101.552 36.903 100.209C36.903 98.8665 37.996 97.7734 39.339 97.7734H40.8189C42.1626 97.7734 43.2549 98.8665 43.2549 100.209C43.2549 101.552 42.1618 102.645 40.8189 102.645ZM39.339 98.5857C38.4439 98.5857 37.7152 99.3144 37.7152 100.209C37.7152 101.105 38.4439 101.833 39.339 101.833H40.8189C41.7147 101.833 42.4426 101.105 42.4426 100.209C42.4426 99.3144 41.7139 98.5857 40.8189 98.5857H39.339Z" fill="#263238"/>
<path d="M53.0149 133.48H15.1919C14.5079 133.48 13.9534 134.035 13.9534 134.719V139.706C13.9534 140.39 14.5079 140.945 15.1919 140.945H53.0149C53.699 140.945 54.2535 140.39 54.2535 139.706V134.719C54.2535 134.035 53.699 133.48 53.0149 133.48Z" fill="#A6DBFF"/>
<path d="M51.0054 141.35H17.2034C15.1882 141.35 13.5482 139.711 13.5482 137.695V136.728C13.5482 134.713 15.1882 133.073 17.2034 133.073H51.0062C53.0214 133.073 54.6614 134.712 54.6614 136.728V137.695C54.6614 139.71 53.0221 141.35 51.0062 141.35H51.0054ZM17.2027 133.886C15.6354 133.886 14.3597 135.16 14.3597 136.728V137.695C14.3597 139.262 15.6354 140.538 17.2027 140.538H51.0054C52.5727 140.538 53.8483 139.262 53.8483 137.695V136.728C53.8483 135.161 52.5727 133.886 51.0054 133.886H17.2034H17.2027Z" fill="#263238"/>
<path d="M22.2943 139.176C23.3782 139.176 24.2569 138.297 24.2569 137.213C24.2569 136.129 23.3782 135.25 22.2943 135.25C21.2103 135.25 20.3317 136.129 20.3317 137.213C20.3317 138.297 21.2103 139.176 22.2943 139.176Z" fill="white"/>
<path d="M22.2944 139.581C20.9878 139.581 19.9257 138.518 19.9257 137.212C19.9257 135.907 20.9886 134.844 22.2944 134.844C23.6002 134.844 24.6631 135.907 24.6631 137.212C24.6631 138.518 23.6002 139.581 22.2944 139.581ZM22.2944 135.655C21.4357 135.655 20.7379 136.354 20.7379 137.212C20.7379 138.07 21.4365 138.768 22.2944 138.768C23.1523 138.768 23.8508 138.07 23.8508 137.212C23.8508 136.354 23.1523 135.655 22.2944 135.655Z" fill="#263238"/>
<path d="M47.7081 139.176C48.792 139.176 49.6707 138.297 49.6707 137.213C49.6707 136.129 48.792 135.25 47.7081 135.25C46.6242 135.25 45.7455 136.129 45.7455 137.213C45.7455 138.297 46.6242 139.176 47.7081 139.176Z" fill="white"/>
<path d="M47.7102 139.581C46.4036 139.581 45.3414 138.518 45.3414 137.212C45.3414 135.907 46.4043 134.844 47.7102 134.844C49.016 134.844 50.0789 135.907 50.0789 137.212C50.0789 138.518 49.016 139.581 47.7102 139.581ZM47.7102 135.655C46.8515 135.655 46.1537 136.354 46.1537 137.212C46.1537 138.07 46.8522 138.768 47.7102 138.768C48.5681 138.768 49.2666 138.07 49.2666 137.212C49.2666 136.354 48.5681 135.655 47.7102 135.655Z" fill="#263238"/>
<path d="M54.6583 136.834V132.302L59.1691 129.698L63.6791 132.302V136.834L64.8023 136.186V129.68L59.1691 126.428L53.535 129.68V136.186L54.6583 136.834Z" fill="#A399F0"/>
<path d="M63.6791 137.24C63.6087 137.24 63.5391 137.222 63.4757 137.186C63.3503 137.113 63.273 136.979 63.273 136.834V132.537L59.1683 130.167L55.0637 132.537V136.834C55.0637 136.979 54.9863 137.113 54.861 137.186C54.7356 137.259 54.5802 137.259 54.4548 137.186L53.3316 136.538C53.2063 136.465 53.1289 136.331 53.1289 136.186V129.68C53.1289 129.535 53.2063 129.401 53.3316 129.328L58.9656 126.076C59.0909 126.003 59.2464 126.003 59.3718 126.076L65.0058 129.328C65.1311 129.401 65.2085 129.535 65.2085 129.68V136.186C65.2085 136.331 65.1311 136.465 65.0058 136.538L63.8826 137.186C63.8199 137.222 63.7495 137.24 63.6799 137.24H63.6791ZM59.1683 129.292C59.2387 129.292 59.3083 129.31 59.371 129.346L63.8818 131.95C64.0071 132.023 64.0852 132.157 64.0852 132.302V136.131L64.3962 135.951V129.915L59.1683 126.896L53.9404 129.915V135.951L54.2514 136.131V132.302C54.2514 132.157 54.3287 132.023 54.4541 131.95L58.9649 129.346C59.0275 129.31 59.0979 129.292 59.1675 129.292H59.1683Z" fill="#263238"/>
<path d="M36.9623 139.107C37.9221 138.147 37.9221 136.591 36.9623 135.631C36.0025 134.671 34.4464 134.672 33.4866 135.631C32.5268 136.591 32.5268 138.147 33.4866 139.107C34.4464 140.067 36.0025 140.067 36.9623 139.107Z" fill="white"/>
<path d="M35.2237 140.233C33.6448 140.233 32.3599 138.948 32.3599 137.369C32.3599 135.79 33.6448 134.505 35.2237 134.505C36.8026 134.505 38.0875 135.79 38.0875 137.369C38.0875 138.948 36.8026 140.233 35.2237 140.233ZM35.2237 135.318C34.0927 135.318 33.1721 136.238 33.1721 137.369C33.1721 138.5 34.0927 139.421 35.2237 139.421C36.3547 139.421 37.2752 138.5 37.2752 137.369C37.2752 136.238 36.3547 135.318 35.2237 135.318Z" fill="#263238"/>
<path d="M76.3694 145.353V165.623C76.3694 169.881 78.0401 173.967 81.0233 177.005L97.1051 193.384C97.8026 194.094 98.9474 194.094 99.6449 193.384L115.727 177.005C118.709 173.968 120.381 169.881 120.381 165.623V145.353L118.323 144.095C106.078 136.608 90.6723 136.608 78.4275 144.095L76.37 145.353H76.3694Z" fill="#A399F0"/>
<path d="M98.3742 194.264C97.7988 194.264 97.2604 194.037 96.8572 193.627L80.7753 177.248C77.7104 174.127 76.0225 169.999 76.0225 165.624V145.355C76.0225 145.234 76.0851 145.122 76.1881 145.059L78.2455 143.801C84.3075 140.094 91.2683 138.134 98.3742 138.134C105.48 138.134 112.44 140.094 118.503 143.801L120.56 145.059C120.663 145.122 120.726 145.234 120.726 145.355V165.624C120.726 169.999 119.038 174.127 115.973 177.248L99.8912 193.627C99.488 194.037 98.9496 194.264 98.3742 194.264ZM76.7153 145.549V165.624C76.7153 169.816 78.3326 173.772 81.2696 176.763L97.3514 193.142C97.6233 193.419 97.9862 193.571 98.3742 193.571C98.7622 193.571 99.1251 193.419 99.3969 193.142L115.479 176.763C118.416 173.772 120.033 169.816 120.033 165.624V145.549L118.141 144.392C105.949 136.936 90.7998 136.936 78.6071 144.392L76.7153 145.549Z" fill="#263238"/>
<path d="M116.395 148.477V163.873C116.395 168.129 114.723 172.216 111.741 175.254L99.6458 187.574C99.2974 187.929 98.8355 188.107 98.3756 188.107C97.9157 188.107 97.4544 187.929 97.1054 187.574L85.0097 175.254C82.0285 172.217 80.3564 168.129 80.3564 163.873V148.477C85.8873 145.094 92.1314 143.403 98.3756 143.403C104.62 143.403 110.864 145.094 116.395 148.477Z" fill="white"/>
<path d="M98.3741 188.453C97.7987 188.453 97.2596 188.227 96.8565 187.816L84.7608 175.496C81.6958 172.374 80.0085 168.247 80.0085 163.873V148.477C80.0085 148.356 80.0712 148.245 80.1742 148.182C85.6549 144.829 91.9485 143.057 98.3741 143.057C104.8 143.057 111.094 144.829 116.574 148.182C116.677 148.245 116.74 148.356 116.74 148.477V163.873C116.74 168.247 115.052 172.375 111.987 175.496L99.8918 187.816C99.4886 188.227 98.9502 188.453 98.3748 188.453H98.3741ZM80.7014 148.672V163.873C80.7014 168.064 82.3187 172.019 85.2557 175.011L97.3514 187.331C97.6232 187.608 97.9861 187.761 98.3741 187.761C98.7621 187.761 99.125 187.608 99.3969 187.331L111.493 175.011C114.43 172.02 116.048 168.064 116.048 163.873V148.672C110.715 145.452 104.608 143.751 98.3748 143.751C92.1412 143.751 86.0343 145.452 80.702 148.672H80.7014Z" fill="#263238"/>
<path d="M98.3733 173.979C104.667 173.979 109.77 168.931 109.77 162.704C109.77 156.478 104.667 151.43 98.3733 151.43C92.0793 151.43 86.9771 156.478 86.9771 162.704C86.9771 168.931 92.0793 173.979 98.3733 173.979Z" fill="#A399F0"/>
<path d="M98.3739 174.325C91.8988 174.325 86.6312 169.112 86.6312 162.705C86.6312 156.297 91.8988 151.084 98.3739 151.084C104.849 151.084 110.117 156.297 110.117 162.705C110.117 169.112 104.849 174.325 98.3739 174.325ZM98.3739 151.777C92.2809 151.777 87.3241 156.679 87.3241 162.705C87.3241 168.73 92.2809 173.632 98.3739 173.632C104.467 173.632 109.424 168.73 109.424 162.705C109.424 156.679 104.467 151.777 98.3739 151.777Z" fill="#263238"/>
<path d="M98.3749 170.759C102.872 170.759 106.517 167.153 106.517 162.704C106.517 158.256 102.872 154.649 98.3749 154.649C93.8783 154.649 90.233 158.256 90.233 162.704C90.233 167.153 93.8783 170.759 98.3749 170.759Z" fill="#A6DBFF"/>
<path d="M98.3744 171.106C93.6941 171.106 89.8861 167.338 89.8861 162.705C89.8861 158.072 93.6941 154.304 98.3744 154.304C103.055 154.304 106.863 158.072 106.863 162.705C106.863 167.338 103.055 171.106 98.3744 171.106ZM98.3744 154.997C94.0761 154.997 90.5789 158.455 90.5789 162.705C90.5789 166.955 94.0761 170.413 98.3744 170.413C102.673 170.413 106.17 166.955 106.17 162.705C106.17 158.455 102.673 154.997 98.3744 154.997Z" fill="#263238"/>
<path d="M102.69 159.317C102.399 158.859 101.918 158.792 101.619 159.17L97.457 164.442L95.6299 161.8C95.3257 161.36 94.844 161.327 94.5602 161.726C94.2765 162.126 94.293 162.812 94.5972 163.253L96.9449 166.648C97.1904 167.003 97.55 167.093 97.8291 166.906C97.8964 166.866 97.9604 166.81 98.0172 166.739L102.675 160.839C102.973 160.461 102.98 159.776 102.69 159.318V159.317Z" fill="white"/>
<path d="M97.532 167.349C97.2139 167.349 96.8886 167.173 96.661 166.844L94.3132 163.449C93.9252 162.888 93.9101 162.042 94.2789 161.525C94.4709 161.255 94.752 161.1 95.0516 161.1H95.0575C95.3842 161.102 95.6969 161.285 95.916 161.602L97.4766 163.858L101.349 158.954C101.549 158.7 101.835 158.563 102.13 158.578C102.461 158.595 102.772 158.797 102.983 159.131C103.353 159.715 103.337 160.558 102.947 161.051L98.2895 166.951C98.2077 167.055 98.1126 167.139 98.0064 167.203C97.8606 167.301 97.6969 167.348 97.532 167.348V167.349ZM95.051 161.793C94.9579 161.793 94.8866 161.866 94.8431 161.926C94.6432 162.207 94.6616 162.735 94.8827 163.055L97.2304 166.45C97.3307 166.595 97.4904 166.715 97.6369 166.617C97.6857 166.587 97.7167 166.558 97.7458 166.522L102.404 160.622C102.611 160.359 102.608 159.835 102.397 159.501C102.309 159.362 102.195 159.275 102.094 159.27C102.026 159.267 101.954 159.304 101.892 159.383L97.7293 164.656C97.6613 164.742 97.5557 164.792 97.4462 164.787C97.3367 164.784 97.2351 164.728 97.1724 164.638L95.3452 161.996C95.2575 161.869 95.1479 161.792 95.0523 161.792H95.051V161.793Z" fill="#263238"/>
<path d="M134.171 143.992L132.512 143.439V145.098L133.065 146.204H192.791L193.897 145.098V142.886L192.238 143.992H134.171Z" fill="white"/>
<path d="M192.605 146.474H133.845C132.828 146.474 132 145.647 132 144.629V142.462C132 142.255 132.168 142.087 132.375 142.087C132.582 142.087 132.75 142.255 132.75 142.462V144.629C132.75 145.233 133.241 145.724 133.845 145.724H192.605C193.209 145.724 193.7 145.233 193.7 144.629V142.462C193.7 142.255 193.868 142.087 194.075 142.087C194.282 142.087 194.45 142.255 194.45 142.462V144.629C194.45 145.647 193.622 146.474 192.605 146.474Z" fill="#263238"/>
<path d="M188.681 95.376H137.771C137.462 95.376 137.211 95.6267 137.211 95.936V128.764C137.211 129.073 137.462 129.324 137.771 129.324H188.681C188.99 129.324 189.241 129.073 189.241 128.764V95.936C189.241 95.6267 188.99 95.376 188.681 95.376Z" fill="white"/>
<path d="M187.77 129.699H138.68C137.663 129.699 136.835 128.871 136.835 127.854V96.8449C136.835 95.8278 137.663 95 138.68 95H187.77C188.787 95 189.615 95.8278 189.615 96.8449V127.854C189.615 128.871 188.787 129.699 187.77 129.699ZM138.68 95.7507C138.077 95.7507 137.585 96.2421 137.585 96.8457V127.855C137.585 128.458 138.077 128.95 138.68 128.95H187.77C188.373 128.95 188.865 128.458 188.865 127.855V96.8457C188.865 96.2421 188.373 95.7507 187.77 95.7507H138.68Z" fill="#263238"/>
<path d="M192.604 143.933H133.845C133.036 143.933 132.375 143.271 132.375 142.463L137.21 130.794C137.21 130.794 137.871 129.324 138.68 129.324H187.769C188.578 129.324 189.239 130.794 189.239 130.794L194.074 142.463C194.074 143.271 193.413 143.933 192.604 143.933Z" fill="white"/>
<path d="M192.605 144.307H133.846C132.829 144.307 132.001 143.479 132.001 142.462C132.001 142.413 132.011 142.364 132.03 142.319L136.864 130.65C136.947 130.466 137.659 128.948 138.681 128.948H187.771C188.792 128.948 189.505 130.466 189.583 130.639L194.422 142.319C194.44 142.364 194.45 142.413 194.45 142.462C194.45 143.479 193.622 144.307 192.605 144.307ZM132.753 142.531C132.789 143.103 133.265 143.557 133.846 143.557H192.605C193.186 143.557 193.662 143.103 193.698 142.531L188.894 130.937C188.671 130.444 188.155 129.698 187.771 129.698H138.681C138.297 129.698 137.781 130.444 137.553 130.947L132.753 142.531Z" fill="#263238"/>
<path d="M140.637 131.188L137.914 138.282H188.515L185.816 131.188H140.637Z" fill="#A6DBFF"/>
<path d="M188.513 138.658H137.913C137.79 138.658 137.674 138.597 137.604 138.495C137.534 138.393 137.519 138.263 137.563 138.148L140.286 131.054C140.341 130.909 140.481 130.813 140.636 130.813H185.814C185.97 130.813 186.109 130.91 186.165 131.055L188.864 138.149C188.907 138.264 188.892 138.393 188.822 138.495C188.752 138.597 188.637 138.658 188.514 138.658H188.513ZM138.459 137.908H187.97L185.556 131.563H140.894L138.46 137.908H138.459Z" fill="#263238"/>
<path d="M186.802 97.6392H139.68V126.716H186.802V97.6392Z" fill="#A399F0"/>
<path d="M186.802 127.091H139.68C139.473 127.091 139.305 126.923 139.305 126.716V97.6391C139.305 97.432 139.473 97.2642 139.68 97.2642H186.802C187.009 97.2642 187.177 97.432 187.177 97.6391V126.716C187.177 126.923 187.009 127.091 186.802 127.091ZM140.054 126.341H186.427V98.0141H140.054V126.341Z" fill="#263238"/>
<path d="M151.59 100.908H143.575V102.756H151.59V100.908Z" fill="white"/>
<path d="M158.063 104.122H146.513V105.97H158.063V104.122Z" fill="#A6DBFF"/>
<path d="M165.584 104.122H159.809V105.97H165.584V104.122Z" fill="white"/>
<path d="M173.003 104.122H167.228V105.97H173.003V104.122Z" fill="#A6DBFF"/>
<path d="M180.606 104.122H174.832V105.97H180.606V104.122Z" fill="white"/>
<path d="M153.411 107.339H146.513V109.187H153.411V107.339Z" fill="white"/>
<path d="M163.791 107.339H155.002V109.187H163.791V107.339Z" fill="white"/>
<path d="M170.954 107.339H165.179V109.187H170.954V107.339Z" fill="white"/>
<path d="M154.266 110.555H146.513V112.403H154.266V110.555Z" fill="white"/>
<path d="M167.689 110.555H155.753V112.403H167.689V110.555Z" fill="#A6DBFF"/>
<path d="M155.125 115.043H143.575V116.891H155.125V115.043Z" fill="white"/>
<path d="M162.649 115.043H156.874V116.891H162.649V115.043Z" fill="#A6DBFF"/>
<path d="M162.043 118.347H150.493V120.195H162.043V118.347Z" fill="#A6DBFF"/>
<path d="M169.565 118.347H163.79V120.195H169.565V118.347Z" fill="white"/>
<path d="M176.983 118.347H171.208V120.195H176.983V118.347Z" fill="white"/>
<path d="M158.063 121.651H146.513V123.499H158.063V121.651Z" fill="white"/>
<path d="M165.584 121.651H159.809V123.499H165.584V121.651Z" fill="#A6DBFF"/>
<path d="M177.746 23.0561C177.746 21.5768 176.547 20.377 175.067 20.377H124.055C122.576 20.377 121.376 21.5761 121.376 23.0561V28.3446H177.746V23.0561H177.746Z" fill="white"/>
<path d="M177.747 28.7216H121.377C121.169 28.7216 121 28.5529 121 28.3447V23.0561C121 21.3708 122.371 20 124.056 20H175.068C176.754 20 178.124 21.3708 178.124 23.0561V28.3447C178.124 28.5529 177.956 28.7216 177.747 28.7216H177.747ZM121.754 27.9677H177.37V23.0561C177.37 21.7865 176.337 20.754 175.068 20.754H124.055C122.786 20.754 121.753 21.7865 121.753 23.0561V27.9677H121.754Z" fill="#263238"/>
<path d="M121.376 28.3442V62.7978C121.376 64.277 122.575 65.4769 124.055 65.4769H175.067C176.546 65.4769 177.746 64.2777 177.746 62.7978V28.3442H121.377H121.376Z" fill="#A6DBFF"/>
<path d="M175.068 65.8539H124.056C122.371 65.8539 121 64.4831 121 62.7978V28.3443C121 28.136 121.169 27.9673 121.377 27.9673H177.747C177.955 27.9673 178.124 28.136 178.124 28.3443V62.7978C178.124 64.4831 176.753 65.8539 175.068 65.8539H175.068ZM121.755 28.7213V62.7978C121.755 64.0674 122.787 65.0999 124.057 65.0999H175.069C176.339 65.0999 177.371 64.0674 177.371 62.7978V28.7213H121.755H121.755Z" fill="#263238"/>
<path d="M131.964 23.6475H125.309C125.101 23.6475 124.932 23.4788 124.932 23.2705C124.932 23.0623 125.101 22.8936 125.309 22.8936H131.964C132.172 22.8936 132.341 23.0623 132.341 23.2705C132.341 23.4788 132.172 23.6475 131.964 23.6475Z" fill="#263238"/>
<path d="M131.964 25.8282H125.309C125.101 25.8282 124.932 25.6594 124.932 25.4512C124.932 25.243 125.101 25.0742 125.309 25.0742H131.964C132.172 25.0742 132.341 25.243 132.341 25.4512C132.341 25.6594 132.172 25.8282 131.964 25.8282Z" fill="#263238"/>
<path d="M159.453 43.4751H139.67C139.37 43.4751 139.127 43.7181 139.127 44.018V59.9777C139.127 60.2775 139.37 60.5206 139.67 60.5206H159.453C159.753 60.5206 159.996 60.2775 159.996 59.9777V44.018C159.996 43.7181 159.753 43.4751 159.453 43.4751Z" fill="white"/>
<path d="M158.572 60.8981H140.552C139.559 60.8981 138.751 60.0902 138.751 59.0972V44.8995C138.751 43.9065 139.559 43.0986 140.552 43.0986H158.572C159.565 43.0986 160.373 43.9065 160.373 44.8995V59.0972C160.373 60.0902 159.565 60.8981 158.572 60.8981ZM140.552 43.8519C139.975 43.8519 139.505 44.3215 139.505 44.8988V59.0964C139.505 59.6738 139.975 60.1434 140.552 60.1434H158.572C159.149 60.1434 159.619 59.6738 159.619 59.0964V44.8988C159.619 44.3215 159.149 43.8519 158.572 43.8519H140.552Z" fill="#263238"/>
<path d="M150.887 53.1623C151.847 52.6769 152.506 51.6845 152.506 50.5364C152.506 48.9099 151.187 47.5923 149.562 47.5923C147.936 47.5923 146.618 48.9107 146.618 50.5364C146.618 51.6845 147.277 52.6769 148.236 53.1623L146.587 56.4051H152.537L150.888 53.1623H150.887Z" fill="#A399F0"/>
<path d="M152.537 56.7821H146.587C146.456 56.7821 146.334 56.7139 146.265 56.6019C146.197 56.4899 146.191 56.3506 146.251 56.2343L147.739 53.3096C146.807 52.6992 146.241 51.6673 146.241 50.5364C146.241 48.7053 147.731 47.2153 149.562 47.2153C151.393 47.2153 152.883 48.7053 152.883 50.5364C152.883 51.6673 152.318 52.6992 151.385 53.3096L152.873 56.2343C152.932 56.3513 152.927 56.4906 152.858 56.6019C152.789 56.7139 152.668 56.7821 152.537 56.7821H152.537ZM147.201 56.0282H151.923L150.552 53.3333C150.507 53.2442 150.499 53.1401 150.53 53.0453C150.561 52.9505 150.629 52.8715 150.718 52.8263C151.589 52.3861 152.13 51.5087 152.13 50.5364C152.13 49.1211 150.978 47.9693 149.562 47.9693C148.147 47.9693 146.995 49.1211 146.995 50.5364C146.995 51.5087 147.536 52.3854 148.407 52.8263C148.496 52.8715 148.564 52.9505 148.595 53.0453C148.626 53.1408 148.618 53.2442 148.573 53.3333L147.202 56.0282H147.201Z" fill="#263238"/>
<path d="M154.457 35.3272C153.204 34.0749 151.473 33.3008 149.563 33.3008C145.74 33.3008 142.64 36.3992 142.64 40.2215V43.4765H144.816V40.2416C144.816 37.62 146.941 35.4952 149.563 35.4952C150.874 35.4952 152.059 36.0273 152.918 36.8868C153.697 37.6652 154.201 38.7136 154.289 39.879H156.476C156.389 38.1032 155.635 36.5048 154.458 35.3279L154.457 35.3272Z" fill="#A399F0"/>
<path d="M144.817 43.853H142.64C142.432 43.853 142.263 43.6843 142.263 43.476V40.221C142.263 36.197 145.538 32.9233 149.563 32.9233C151.512 32.9233 153.346 33.6823 154.724 35.0603C156.008 36.3442 156.764 38.0489 156.851 39.8599C156.856 39.9625 156.819 40.0631 156.748 40.1385C156.677 40.2132 156.578 40.2555 156.475 40.2555H154.289C154.091 40.2555 153.927 40.1033 153.913 39.9073C153.834 38.8661 153.386 37.8873 152.651 37.1528C151.826 36.327 150.728 35.8717 149.562 35.8717C147.153 35.8717 145.193 37.832 145.193 40.2419V43.476C145.193 43.6843 145.024 43.853 144.816 43.853H144.817ZM143.017 43.0991H144.44V40.2419C144.44 37.417 146.738 35.1185 149.563 35.1185C150.93 35.1185 152.216 35.652 153.185 36.6199C153.965 37.399 154.469 38.4122 154.627 39.5015H156.068C155.906 38.0266 155.249 36.6515 154.191 35.5938C152.955 34.358 151.311 33.6773 149.563 33.6773C145.953 33.6773 143.016 36.6128 143.016 40.221V43.0991H143.017Z" fill="#263238"/>
<path d="M134.781 54.2445H127.715C127.507 54.2445 127.338 54.0757 127.338 53.8675C127.338 53.6592 127.507 53.4905 127.715 53.4905H134.595L135.914 51.7693C136.041 51.6041 136.277 51.5725 136.443 51.6996C136.608 51.826 136.64 52.063 136.513 52.2281L135.08 54.0972C135.009 54.1906 134.898 54.2452 134.781 54.2452V54.2445Z" fill="#263238"/>
<path d="M131.965 57.9219H127.716C127.508 57.9219 127.339 57.7532 127.339 57.545C127.339 57.3367 127.508 57.168 127.716 57.168H131.965C132.173 57.168 132.342 57.3367 132.342 57.545C132.342 57.7532 132.173 57.9219 131.965 57.9219Z" fill="#263238"/>
<path d="M131.965 56.0826H127.716C127.508 56.0826 127.339 55.9138 127.339 55.7056C127.339 55.4974 127.508 55.3286 127.716 55.3286H131.965C132.173 55.3286 132.342 55.4974 132.342 55.7056C132.342 55.9138 132.173 56.0826 131.965 56.0826Z" fill="#263238"/>
<path d="M162.312 40.9307C162.232 40.9307 162.151 40.9056 162.083 40.8532C161.918 40.7268 161.886 40.4898 162.013 40.3247L163.446 38.4555C163.517 38.3622 163.628 38.3076 163.745 38.3076H170.811C171.019 38.3076 171.188 38.4764 171.188 38.6846C171.188 38.8928 171.019 39.0616 170.811 39.0616H163.931L162.611 40.7828C162.538 40.8797 162.426 40.9307 162.312 40.9307Z" fill="#263238"/>
<path d="M170.81 35.3839H166.561C166.353 35.3839 166.184 35.2151 166.184 35.0069C166.184 34.7986 166.353 34.6299 166.561 34.6299H170.81C171.018 34.6299 171.187 34.7986 171.187 35.0069C171.187 35.2151 171.018 35.3839 170.81 35.3839Z" fill="#263238"/>
<path d="M170.81 37.2232H166.561C166.353 37.2232 166.184 37.0545 166.184 36.8462C166.184 36.638 166.353 36.4692 166.561 36.4692H170.81C171.018 36.4692 171.187 36.638 171.187 36.8462C171.187 37.0545 171.018 37.2232 170.81 37.2232Z" fill="#263238"/>
<path d="M99.9956 115.618C98.4702 115.536 97.0016 115.242 95.6165 114.767C89.2441 112.575 84.6575 106.509 84.6575 99.3647C84.6575 91.1644 90.6964 84.3816 98.5536 83.2521C98.9685 83.1929 99.3875 83.15 99.8105 83.1214C101.629 82.1533 103.626 81.4813 105.744 81.177C106.596 81.0565 107.466 80.9871 108.353 80.9871C108.38 80.9871 108.408 80.9871 108.435 80.9871C106.992 78.769 106.449 76.1404 106.885 73.6875C105.158 76.7001 101.763 78.7486 97.8539 78.7486C93.9446 78.7486 90.5499 76.7021 88.8211 73.6895C89.4251 77.1126 88.1356 80.8747 85.1416 83.3971C82.1497 85.9195 78.2363 86.5424 74.984 85.3497C77.6383 87.582 79.056 91.2951 78.3787 95.1573C77.7014 99.0216 75.102 102.022 71.8477 103.209C75.3074 103.206 78.7753 105.137 80.7279 108.531C82.6805 111.93 82.6114 115.906 80.8784 118.915C83.5267 116.678 87.4156 115.918 91.0869 117.262C94.7582 118.604 97.2518 121.696 97.8498 125.119C98.4478 121.698 100.939 118.606 104.609 117.264C103.868 117.109 103.144 116.909 102.44 116.666C101.596 116.376 100.781 116.023 99.9977 115.616L99.9956 115.618Z" fill="url(#paint0_linear_335_6678)" stroke="#263238" stroke-width="0.75"/>
<path d="M108.345 83.0845C107.558 83.0845 106.785 83.1457 106.029 83.252C105.546 83.3214 105.073 83.4113 104.607 83.5236C97.4554 85.2188 92.1345 91.6667 92.1345 99.3645C92.1345 106.507 96.7191 112.575 103.094 114.766C103.59 114.938 104.098 115.081 104.615 115.205C105.813 115.491 107.062 115.645 108.347 115.645C117.301 115.645 124.56 108.355 124.56 99.3645C124.56 90.3738 117.301 83.0845 108.347 83.0845H108.345Z" fill="url(#paint1_linear_335_6678)" stroke="#263238" stroke-width="0.75"/>
<defs>
<linearGradient id="paint0_linear_335_6678" x1="78.5" y1="83" x2="113.803" y2="107.111" gradientUnits="userSpaceOnUse">
<stop stop-color="#9CE7DD"/>
<stop offset="0.233633" stop-color="#8FE3EF"/>
<stop offset="0.619036" stop-color="#6894FC"/>
<stop offset="0.839301" stop-color="#A786F9"/>
<stop offset="1" stop-color="#D377EA"/>
</linearGradient>
<linearGradient id="paint1_linear_335_6678" x1="81.4998" y1="78.5" x2="119.774" y2="111.605" gradientUnits="userSpaceOnUse">
<stop stop-color="#9CE7DD"/>
<stop offset="0.233633" stop-color="#8FE3EF"/>
<stop offset="0.619036" stop-color="#6894FC"/>
<stop offset="0.839301" stop-color="#A786F9"/>
<stop offset="1" stop-color="#D377EA"/>
</linearGradient>
</defs>
</svg>
