<svg width="200" height="200" viewBox="0 0 200 200" fill="none" xmlns="http://www.w3.org/2000/svg">
<g clip-path="url(#clip0_2631_487)">
<g filter="url(#filter0_f_2631_487)">
<path d="M174.509 120.208C173.318 108.279 176.568 99.0929 171.21 86.6461C165.282 72.8766 153.05 56.2984 137.561 50.5306C121.786 44.6556 108.61 56.2074 93.029 53.3143C70.4818 49.1289 52.1874 26.7584 33.2322 31.1638C16.1726 35.1284 17.8766 59.2236 24.293 77.4615C30.1747 94.1884 41.2943 105.937 53.4878 121.802C65.0203 136.802 75.609 158.558 93.141 167.023C111.114 175.702 113.76 159.731 129.995 158.032C143.128 156.66 171.504 166.739 178.336 158.113C185.332 149.283 175.795 133.097 174.509 120.208Z" fill="url(#paint0_linear_2631_487)" fill-opacity="0.15"/>
</g>
<ellipse cx="101.384" cy="106.562" rx="91.6646" ry="90.583" stroke="url(#paint1_linear_2631_487)"/>
<ellipse cx="101.384" cy="106.562" rx="70.5736" ry="69.4921" stroke="url(#paint2_linear_2631_487)"/>
<ellipse cx="101.384" cy="106.562" rx="50.5643" ry="50.0235" stroke="url(#paint3_linear_2631_487)"/>
<path d="M146.756 72.2107C144.236 63.6878 123.145 41.8397 102.357 60.8378C93.6342 68.8091 102.703 78.2189 87.4475 77.597C72.1917 76.9751 61.9437 75.6934 56.2978 80.0793C51.4198 83.8648 52.2039 86.5093 56.3735 95.1782C60.132 102.993 47.4504 100.727 40.685 99.5695C33.9143 98.4122 24.6343 102.106 22.2764 107.465C5.87951 144.72 66.3187 164.778 66.3187 164.778C66.3187 164.778 157.675 109.147 146.762 72.2107H146.756Z" fill="#263238"/>
<path d="M98.3827 150.258C98.3827 150.258 98.334 150.258 98.307 150.258C98.1501 150.237 82.5482 148.09 65.6268 143.223C42.8107 136.657 28.5824 128.54 23.3313 119.087C20.4975 113.987 20.3569 108.514 22.9094 102.82C25.1429 97.8391 34.1688 94.1401 41.1342 95.3569L41.3776 95.4002C45.8553 96.1843 54.1998 97.639 55.9195 95.3136C56.417 94.643 56.3143 93.5939 55.6059 92.2041C51.5769 84.2544 50.4467 81.3125 55.5518 77.5107C60.3324 73.9522 68.52 74.4227 79.8497 75.0717C81.7478 75.1799 83.7488 75.2934 85.8417 75.3962C95.3272 75.8558 95.8085 73.4385 96.7657 68.6146C97.2254 66.3108 97.7932 63.4392 99.5292 60.2702C101.779 56.1601 106.884 53.8347 114.304 53.5373C119.82 53.3155 124.606 54.2619 124.806 54.3052C125.098 54.3647 125.287 54.6513 125.228 54.9433C125.168 55.2354 124.887 55.43 124.59 55.3652C124.4 55.3273 105.483 51.6337 100.476 60.7893C98.8207 63.8178 98.2907 66.4785 97.8257 68.8255C96.8522 73.7413 96.2033 76.9861 85.7876 76.4778C83.6893 76.375 81.6884 76.2614 79.7848 76.1533C68.6823 75.5206 60.6569 75.0609 56.1953 78.3814C51.9609 81.5342 52.4476 83.573 56.5685 91.7173C57.4716 93.502 57.5473 94.9297 56.7848 95.9572C54.6649 98.818 46.553 97.4011 41.1883 96.4655L40.9449 96.4223C34.3959 95.2758 25.9541 98.6666 23.8937 103.263C21.4871 108.633 21.6169 113.782 24.2776 118.562C36.4942 140.54 97.8365 149.106 98.453 149.188C98.7504 149.225 98.9559 149.501 98.9181 149.799C98.8802 150.069 98.6477 150.269 98.3827 150.269V150.258Z" fill="#263238"/>
<path d="M125.293 177.639C125.293 177.639 149.686 130.628 138.699 117.378C127.711 104.129 107.863 98.4179 88.1781 89.1649C79.2225 84.9576 68.5472 88.6728 64.1398 97.531L48.4351 140.384C43.4382 154.017 47.797 169.316 59.2294 178.272C59.2294 178.272 67.3139 184.94 78.941 177.639C90.568 170.338 111.118 171.998 111.118 171.998L125.293 177.639Z" fill="white" stroke="#263238"/>
<path d="M90.2873 90.7168L91.2553 93.7669C95.5059 107.13 108.977 115.301 122.794 112.9L126.25 112.3L90.2819 90.7168H90.2873Z" fill="white"/>
<path d="M118.029 113.852C105.791 113.852 94.5533 105.913 90.7407 93.9291L89.7726 90.8844C89.6807 90.5978 89.8375 90.295 90.1241 90.203C90.4054 90.1111 90.7136 90.2679 90.8055 90.5546L91.7736 93.6046C95.9215 106.649 109.22 114.717 122.707 112.37L126.163 111.77C126.46 111.721 126.736 111.916 126.79 112.208C126.839 112.5 126.644 112.781 126.352 112.835L122.896 113.436C121.268 113.717 119.641 113.857 118.035 113.857L118.029 113.852Z" fill="#263238"/>
<path d="M105.04 105.762C115.445 99.1531 126.034 92.4852 126.412 92.2905L124.99 76.748C124.99 76.748 109.242 87.6234 97.9934 94.8268L105.035 105.762H105.04Z" fill="white"/>
<path d="M150.731 94.633C155.63 84.2231 151.162 71.8132 140.752 66.9146C130.342 62.0161 117.932 66.484 113.034 76.8939C108.135 87.3038 112.603 99.7137 123.013 104.612C133.423 109.511 145.833 105.043 150.731 94.633Z" fill="#263238"/>
<path d="M116.132 80.4256C117.992 77.7974 120.642 75.6937 123.914 74.5634C132.236 71.6864 141.316 76.1047 144.193 84.4329C146.438 90.9333 144.226 97.8771 139.191 101.987C137.563 106.227 134.145 109.753 129.516 111.348C121.193 114.225 112.113 109.807 109.236 101.479C107.717 97.0821 108.247 92.48 110.302 88.6944C107.776 88.6674 105.424 87.0828 104.548 84.5573C103.439 81.345 105.143 77.8407 108.355 76.732C111.529 75.6342 114.98 77.289 116.132 80.4256Z" fill="white"/>
<path d="M124.325 112.765C117.489 112.765 111.081 108.477 108.723 101.657C108.625 101.376 108.777 101.068 109.058 100.97C109.339 100.873 109.647 101.025 109.745 101.306C112.519 109.337 121.307 113.614 129.338 110.84C133.642 109.353 137.049 106.054 138.688 101.792C138.796 101.511 139.11 101.376 139.386 101.479C139.667 101.587 139.802 101.901 139.694 102.176C137.942 106.735 134.297 110.267 129.689 111.857C127.915 112.468 126.104 112.76 124.319 112.76L124.325 112.765Z" fill="#263238"/>
<path d="M112.638 85.6439C112.6 85.6439 112.562 85.6439 112.525 85.6331C112.233 85.5736 112.043 85.287 112.108 84.995C112.476 83.2374 111.816 81.2581 110.459 80.0738C110.232 79.8791 110.21 79.533 110.405 79.3112C110.599 79.0895 110.945 79.0625 111.167 79.2626C112.833 80.7173 113.617 83.0535 113.163 85.2167C113.109 85.4709 112.887 85.6439 112.633 85.6439H112.638Z" fill="#263238"/>
<path d="M128.813 107.773H128.807C127.299 107.752 125.795 106.951 124.778 105.621C123.762 104.296 123.383 102.63 123.756 101.17C123.832 100.884 124.124 100.705 124.416 100.781C124.703 100.857 124.881 101.149 124.805 101.441C124.513 102.582 124.822 103.901 125.638 104.967C126.455 106.032 127.645 106.676 128.824 106.692C129.121 106.692 129.359 106.941 129.359 107.238C129.359 107.535 129.116 107.773 128.818 107.773H128.813Z" fill="#263238"/>
<path d="M133.21 91.5552C132.994 91.5552 132.788 91.4254 132.707 91.2145L132.615 90.9765C131.971 89.3001 130.636 85.8173 126.017 87.4614C125.736 87.5641 125.428 87.4127 125.325 87.1315C125.222 86.8503 125.374 86.542 125.655 86.4393C131.263 84.4329 132.983 88.9053 133.626 90.5871L133.713 90.8143C133.821 91.0901 133.686 91.4037 133.41 91.5173C133.345 91.5444 133.28 91.5552 133.21 91.5552Z" fill="#263238"/>
<path d="M133.009 103.101C132.728 103.101 132.49 102.879 132.469 102.598C132.296 99.9697 133.139 97.6605 133.918 96.4761C134.702 95.2864 136.092 94.5185 137.736 94.367C139.439 94.2102 141.062 94.751 142.079 95.8056C142.284 96.0219 142.279 96.3626 142.062 96.5681C141.846 96.7736 141.505 96.7682 141.3 96.5519C140.521 95.7407 139.191 95.308 137.833 95.4378C136.519 95.5568 135.421 96.1517 134.821 97.0656C134.269 97.9038 133.383 99.9913 133.55 102.517C133.572 102.814 133.345 103.074 133.047 103.09C133.036 103.09 133.026 103.09 133.009 103.09V103.101Z" fill="#263238"/>
<path d="M141.689 96.7197C141.549 96.7197 141.408 96.6656 141.3 96.552C140.635 95.8598 139.586 95.4488 138.423 95.4218C138.125 95.4164 137.888 95.1676 137.893 94.8702C137.898 94.5727 138.142 94.3294 138.445 94.3402C139.888 94.3726 141.213 94.908 142.079 95.8057C142.284 96.0221 142.279 96.3628 142.062 96.5683C141.96 96.671 141.824 96.7197 141.689 96.7197Z" fill="#263238"/>
<path d="M139.326 102.441C136.671 102.441 135.833 99.7642 135.53 98.8016L135.481 98.6394C135.389 98.3527 135.546 98.0499 135.827 97.958C136.114 97.866 136.417 98.0229 136.509 98.3041L136.563 98.4717C137.131 100.278 137.98 101.863 140.348 101.203C140.635 101.127 140.932 101.289 141.014 101.581C141.095 101.868 140.927 102.165 140.635 102.246C140.159 102.376 139.721 102.436 139.332 102.436L139.326 102.441Z" fill="#263238"/>
<path d="M128.532 95.2217C125.876 95.2217 125.038 92.5447 124.735 91.5821L124.687 91.4199C124.595 91.1333 124.752 90.8304 125.033 90.7385C125.319 90.6465 125.622 90.8034 125.714 91.0846L125.768 91.2522C126.336 93.0585 127.19 94.643 129.554 93.9833C129.84 93.9075 130.138 94.0752 130.219 94.3618C130.3 94.6484 130.132 94.9459 129.84 95.027C129.364 95.1568 128.926 95.2163 128.537 95.2163L128.532 95.2217Z" fill="#263238"/>
<path d="M119.955 71.8213C117.581 73.1787 115.282 74.6821 113.049 76.2504C112.859 76.3856 112.74 76.6668 112.892 76.8831C114.282 78.8841 116.007 80.62 117.981 82.0261C121.599 84.5841 125.995 85.936 130.36 85.6981C135.135 85.4277 139.731 83.3889 143.128 79.9927C143.517 79.6087 142.976 79.0301 142.571 79.2789C142.641 77.1265 141.186 75.1202 139.602 73.7736C137.839 72.2756 135.735 71.313 133.615 70.4801C131.328 69.5716 129.099 68.874 126.633 69.2363C124.238 69.577 122.026 70.6424 119.949 71.8213H119.955Z" fill="#263238"/>
<path d="M98.8358 3.00293L103.962 5.74694L110.077 25.9614L91.9657 31.4393L84.6595 7.29338L98.8358 3.00293Z" fill="white" stroke="#263238" stroke-linecap="round" stroke-linejoin="round"/>
<path d="M90.0739 14.2848L95.0017 12.7954" stroke="#263238"/>
<path d="M91.0371 17.8372L102.61 14.3384" stroke="#263238"/>
<path d="M91.6445 19.843L103.218 16.3442" stroke="#263238"/>
<path d="M92.254 21.8557L103.824 18.3535" stroke="#263238"/>
<path d="M92.8656 23.8755L102.423 20.9839" stroke="#263238"/>
<path d="M98.8491 3L100.037 6.9181L103.955 5.73395" fill="#263238"/>
<path d="M20.88 68.4138L2.26049 79.0084C1.56434 79.4045 1.32111 80.2899 1.71722 80.9861L8.67106 93.2072C9.06717 93.9033 9.95262 94.1465 10.6488 93.7504L29.2683 83.1559C29.9644 82.7598 30.2077 81.8743 29.8115 81.1782L22.8577 68.9571C22.4616 68.2609 21.5761 68.0177 20.88 68.4138Z" fill="#263238"/>
<path d="M18.6594 79.4408L16.7174 82.7528L14.7753 86.0648L12.8785 82.7277L10.9766 79.3906L14.8205 79.4157L18.6594 79.4408Z" fill="white"/>
<path d="M195.365 60.5022L172.429 63.1323C171.571 63.2306 170.956 64.0055 171.054 64.863L172.78 79.9174C172.879 80.775 173.654 81.3904 174.511 81.2921L197.447 78.662C198.305 78.5637 198.92 77.7888 198.822 76.9312L197.096 61.8768C196.997 61.0193 196.222 60.4038 195.365 60.5022Z" fill="#EA82AF" stroke="#263238"/>
<path d="M179.758 70.2283L176.13 75.8536L184.565 74.8864L179.758 70.2283Z" fill="white"/>
<path d="M186.997 66.3338L181.234 75.2686L194.634 73.7321L186.997 66.3338Z" fill="white"/>
<path d="M182.516 66.7495C182.624 67.6951 181.944 68.5515 180.999 68.66C180.053 68.7684 179.197 68.0882 179.088 67.1426C178.98 66.197 179.66 65.3406 180.606 65.2322C181.551 65.1237 182.408 65.8039 182.516 66.7495Z" fill="white"/>
<path d="M164.403 24.9093L141.632 21.1038C140.78 20.9615 139.975 21.5364 139.833 22.3877L137.335 37.3335C137.193 38.1848 137.767 38.9903 138.619 39.1326L161.389 42.9381C162.241 43.0804 163.046 42.5056 163.189 41.6543L165.686 26.7085C165.829 25.8571 165.254 25.0516 164.403 24.9093Z" fill="white" stroke="#263238" stroke-linecap="round" stroke-linejoin="round"/>
<path d="M146.606 34.3487C146.187 35.2491 144.818 35.5028 143.546 34.9119C142.274 34.321 141.583 33.1089 142.002 32.2085C142.421 31.308 143.79 31.0544 145.062 31.6453C146.334 32.2362 147.025 33.4483 146.606 34.3487Z" fill="#263238"/>
<path d="M154.784 38.1441C154.364 39.0445 152.995 39.2982 151.723 38.7073C150.451 38.1164 149.76 36.9043 150.179 36.0039C150.598 35.1034 151.968 34.8498 153.24 35.4407C154.512 36.0316 155.203 37.2437 154.784 38.1441Z" fill="#263238"/>
<path d="M145.835 34.0771L149.762 25.6043L158.01 29.4336L154.078 37.9055" stroke="#263238" stroke-linecap="round" stroke-linejoin="round"/>
<path d="M149.078 28.4504L156.878 32.0733" stroke="#263238" stroke-linecap="round" stroke-linejoin="round"/>
<path d="M83.2337 53.997L81.7726 48.5482L81.7644 48.5115C84.1153 44.4014 83.5358 39.071 80.0257 35.5609C75.8217 31.357 69.0016 31.357 64.7976 35.5609C60.5937 39.7649 60.5937 46.585 64.7976 50.789C68.3077 54.2991 73.6381 54.8786 77.7482 52.5277L77.7849 52.5359L83.2337 53.997Z" fill="white"/>
<path d="M83.2341 54.4053C83.1974 54.4053 83.1647 54.4012 83.128 54.3931L77.8017 52.9645C73.463 55.3563 68.0224 54.593 64.5082 51.0789C62.3981 48.9687 61.2349 46.1607 61.2349 43.1771C61.2349 40.1935 62.3981 37.3854 64.5082 35.2753C66.6184 33.1652 69.4264 32.002 72.41 32.002C75.3936 32.002 78.2016 33.1652 80.3118 35.2753C83.826 38.7895 84.5892 44.2342 82.1974 48.5688L83.626 53.8951C83.6627 54.038 83.626 54.1849 83.5198 54.291C83.4423 54.3686 83.3362 54.4094 83.2301 54.4094L83.2341 54.4053ZM72.41 32.8183C69.6427 32.8183 67.0428 33.8958 65.0837 35.8508C63.1287 37.8058 62.0512 40.4098 62.0512 43.1771C62.0512 45.9443 63.1287 48.5443 65.0837 50.5034C68.3775 53.7972 73.4998 54.4869 77.5445 52.1768C77.6384 52.1237 77.7486 52.1074 77.8547 52.136L82.6586 53.4217L81.3811 48.6545C81.3526 48.5524 81.3566 48.4055 81.4097 48.3116C83.7198 44.2709 83.0301 39.1446 79.7363 35.8508C77.7813 33.8958 75.1773 32.8183 72.41 32.8183Z" fill="#263238"/>
<path d="M72.2099 48.5157C72.2099 48.5157 62.3001 37.0548 71.3936 40.9159C74.3813 42.1812 70.761 43.8097 70.761 43.8097C70.761 43.8097 71.9365 39.1037 75.3772 38.3813C78.8138 37.6589 75.3772 44.2627 72.2099 48.5157Z" fill="#EA82AF"/>
<path d="M38.8619 29.1622C36.3139 29.7508 28.8318 33.6577 30.5621 40.9185C32.2924 48.1793 37.9967 50.2533 43.0098 48.8706C48.0228 47.488 51.3095 42.3011 50.4444 37.1143C49.5793 31.9274 43.3574 28.1232 38.8619 29.1622Z" fill="#F1BF93"/>
<path d="M50.6103 36.265C50.0336 34.2187 48.7576 32.3897 47.1063 31.0623C45.4511 29.7271 43.4088 28.8462 41.2795 28.6842C39.1266 28.5183 36.9815 29.0792 35.1367 30.1893C33.3195 31.2875 31.7946 32.923 30.9019 34.8547C29.9972 36.8141 29.7958 39.0144 30.2026 41.12C31.1547 46.0698 35.5989 49.6726 40.6356 49.6291C42.8202 49.6094 45.0363 48.9339 46.7903 47.6144C48.5048 46.3266 49.7412 44.5055 50.4207 42.4829C51.0923 40.4879 51.1752 38.2955 50.6064 36.2689L50.6103 36.265ZM47.4145 46.0461C46.0121 47.4999 44.1277 48.4322 42.1367 48.7442C39.5729 49.1472 36.7603 48.6376 34.6666 47.0061C32.5057 45.3232 31.1191 42.6409 30.8742 39.923C30.7715 38.7972 30.8624 37.6516 31.1586 36.5573C32.1976 32.7491 35.8398 29.8338 39.7507 29.5019C43.6971 29.1661 47.6475 31.5561 49.3462 35.1115C51.0567 38.6945 50.1402 43.2176 47.4145 46.0422V46.0461Z" fill="#263238"/>
<path d="M44.4118 39.8877C43.436 38.0705 41.0935 38.0429 39.3079 38.0863C38.8931 38.0982 38.4744 38.1219 38.0635 38.0508C37.7712 37.9994 37.4473 37.9046 37.2655 37.6518C36.7994 37.0079 37.6448 36.1704 38.107 35.8069C39.5686 34.6613 41.4885 34.4243 43.2346 34.9853C43.5901 35.0998 43.7916 34.5152 43.4518 34.3651C41.9072 33.6698 40.0743 33.8278 38.5771 34.5784C37.8265 34.9576 37.0957 35.5146 36.6572 36.2454C36.2068 37 36.2463 37.9678 37.0167 38.4893C37.7159 38.9633 38.6363 38.9001 39.4383 38.8803C40.3942 38.8566 41.3897 38.8211 42.3023 39.1569C43.0687 39.4413 43.7481 40.0023 43.9219 40.8318C44.08 41.5943 43.6573 42.2105 43.0055 42.5621C42.1877 43.0045 41.1527 43.0836 40.2441 43.0717C39.3237 43.0559 38.4033 42.8821 37.5421 42.5621C37.4789 42.412 37.3288 42.2974 37.1589 42.3132C37.068 42.3211 36.9811 42.329 36.8903 42.3409C36.5189 42.3764 36.3491 42.9295 36.7322 43.0954C38.4941 43.8657 40.5444 44.1146 42.4208 43.6327C43.2069 43.4312 43.9733 43.0361 44.4236 42.3409C44.9056 41.5943 44.8226 40.6462 44.4157 39.8877H44.4118Z" fill="#263238"/>
<path d="M42.0259 46.0541C42.0141 45.9751 41.9746 45.904 41.9193 45.8487C41.2754 42.5343 40.7302 39.2002 40.2878 35.8542C40.1574 34.8548 40.031 33.8553 39.869 32.8598C39.8058 32.4766 39.237 32.4885 39.2528 32.8954C39.3357 34.6889 39.5727 36.4823 39.8177 38.26C40.0665 40.0416 40.347 41.8232 40.6591 43.593C40.8369 44.6043 41.0265 45.6156 41.228 46.623C41.2675 46.8244 41.5163 46.935 41.698 46.8995C41.9114 46.856 42.0259 46.6822 42.0338 46.4728C42.0378 46.3306 42.0378 46.1963 42.022 46.058L42.0259 46.0541Z" fill="#263238"/>
<path d="M171.359 108.396C168.367 108.292 158.935 110.396 158.697 118.938C158.458 127.481 164.152 131.465 170.106 131.421C176.06 131.378 181.232 126.616 181.812 120.623C182.392 114.63 176.639 108.579 171.359 108.396Z" fill="#E3EBF0"/>
<path d="M182.248 119.733C182.217 117.299 181.347 114.898 179.915 112.941C178.48 110.973 176.482 109.394 174.175 108.584C171.843 107.762 169.305 107.747 166.936 108.428C164.601 109.104 162.43 110.461 160.87 112.333C159.289 114.232 158.414 116.605 158.24 119.054C157.826 124.811 161.673 130.112 167.256 131.557C169.678 132.182 172.329 132.092 174.66 131.152C176.938 130.236 178.845 128.589 180.196 126.553C181.53 124.546 182.271 122.146 182.242 119.736L182.248 119.733ZM175.815 129.603C173.833 130.795 171.473 131.268 169.179 131.023C166.224 130.709 163.264 129.312 161.432 126.887C159.541 124.385 158.803 121.008 159.337 117.93C159.557 116.654 159.997 115.414 160.649 114.292C162.927 110.388 167.819 108.243 172.242 109.035C176.706 109.833 180.367 113.647 181.192 118.082C182.022 122.552 179.668 127.283 175.816 129.598L175.815 129.603Z" fill="#263238"/>
<path d="M174.39 121.953C174.373 121.947 169.678 123.262 169.62 123.268C169.61 123.258 166.171 119.744 166.151 119.742C166.157 119.759 168.709 126.655 168.712 126.656C168.715 126.657 174.39 121.953 174.39 121.953Z" fill="#263238"/>
<path d="M172.325 113.182L166.378 118.95L169.833 122.483L174.591 121.151L172.325 113.182Z" fill="#263238"/>
<path d="M133.562 164.968C133.562 169.084 141.583 177.316 148.433 176.054L149.515 163.075L136.536 160.371C133.021 161.182 133.561 160.371 133.562 164.968Z" fill="white"/>
<path d="M75.6962 124.599V160.35C75.6962 166.006 78.2675 171.356 82.6897 174.881L95.3339 184.98C102.12 190.402 111.763 190.402 118.549 184.98L131.193 174.881C135.61 171.35 138.187 166 138.187 160.35V124.599L106.941 113.863L75.6962 124.599Z" fill="#4AA2E5" stroke="#263238" stroke-linejoin="round"/>
<path d="M106.942 186.214C103.38 186.214 99.8861 184.99 97.1022 182.766L84.4579 172.667C80.689 169.66 78.5323 165.171 78.5323 160.35V126.621L106.942 116.859L135.351 126.621V160.35C135.351 165.171 133.189 169.66 129.426 172.667L116.781 182.766C113.997 184.99 110.503 186.214 106.942 186.214ZM80.606 128.104V160.355C80.606 164.544 82.4827 168.442 85.7539 171.055L98.3982 181.154C100.814 183.082 103.852 184.145 106.942 184.145C110.032 184.145 113.07 183.082 115.485 181.154L128.13 171.055C131.401 168.442 133.278 164.544 133.278 160.355V128.104L106.942 119.052L80.606 128.104Z" fill="white"/>
<path d="M70.3528 165.947V177.184C70.3528 177.184 58.7852 174.951 56.5896 166.19C54.394 157.429 53.7126 143.536 60.8781 140.746C68.049 137.96 80.3304 140.232 80.3304 140.232C80.3304 140.232 82.5639 145.407 78.3511 145.807C54.7022 148.057 73.4948 148.057 73.4948 148.057L83.7429 147.246C83.7429 147.246 84.6784 150.631 83.8078 153.427C82.9317 156.223 80.325 165.141 70.3474 165.947H70.3528Z" fill="white"/>
<path d="M67.9363 176.789C67.8768 176.789 67.8173 176.779 67.7579 176.757C63.0854 175.102 57.2664 171.949 56.0659 166.303C52.0478 147.413 57.2178 141.876 60.6572 140.259C67.9363 136.83 79.9582 139.588 80.4611 139.707C80.6288 139.745 80.764 139.864 80.8343 140.015C80.8829 140.129 82.0078 142.763 81.056 144.693C80.6234 145.575 79.8446 146.159 78.7468 146.435C77.2163 146.819 75.1235 146.878 73.1009 146.938C70.2239 147.019 66.9683 147.111 66.0598 148.219C65.8705 148.452 65.5298 148.484 65.2972 148.295C65.0647 148.106 65.0323 147.765 65.2215 147.532C66.4437 146.045 69.6615 145.953 73.0685 145.856C75.0315 145.802 77.0649 145.742 78.4818 145.385C79.2714 145.185 79.7905 144.807 80.0826 144.217C80.672 143.028 80.1637 141.33 79.9365 140.697C78.0924 140.307 67.4658 138.247 61.1115 141.238C53.5025 144.818 55.7847 159.803 57.1204 166.082C58.2182 171.241 63.7073 174.183 68.1148 175.74C68.396 175.838 68.542 176.146 68.4447 176.432C68.3635 176.654 68.158 176.795 67.9363 176.795V176.789Z" fill="#263238"/>
<path d="M83.1702 153.141C82.9863 153.141 82.8133 153.049 82.7105 152.881C82.5537 152.627 82.6348 152.292 82.889 152.135C84.771 150.983 83.9111 148.652 83.5271 147.83L60.3811 148.944C60.0837 148.96 59.8295 148.728 59.8133 148.43C59.7971 148.133 60.0296 147.879 60.3271 147.862L83.8192 146.732C84.0247 146.721 84.2139 146.83 84.3167 147.008C85.1117 148.425 85.9607 151.513 83.4514 153.054C83.3649 153.108 83.2675 153.135 83.1702 153.135V153.141Z" fill="#263238"/>
<path d="M62.036 162.296C61.7764 162.296 61.5439 162.107 61.5006 161.842C61.452 161.55 61.652 161.269 61.9441 161.22C62.1171 161.193 79.1467 158.392 81.6614 157.564C83.3055 157.024 83.6948 154.541 83.7813 153.389L60.5056 155.65C60.2135 155.672 59.9431 155.461 59.9161 155.163C59.8891 154.866 60.1054 154.601 60.4028 154.574L84.3005 152.254C84.4465 152.238 84.6034 152.286 84.7115 152.389C84.8251 152.492 84.89 152.632 84.89 152.784C84.89 152.984 84.9278 157.635 81.9967 158.592C79.4009 159.441 62.8202 162.167 62.1171 162.286C62.0901 162.286 62.0576 162.291 62.0306 162.291L62.036 162.296Z" fill="#263238"/>
<path d="M64.2856 167.775C64.0098 167.775 63.7772 167.569 63.7502 167.288C63.7177 166.991 63.934 166.726 64.2315 166.693C64.2747 166.693 68.4767 166.239 72.6625 164.919C76.4048 163.74 80.8988 161.62 81.0772 158.203C81.0934 157.905 81.3476 157.667 81.6451 157.689C81.9425 157.705 82.175 157.959 82.1588 158.257C81.764 165.855 65.0589 167.688 64.345 167.764C64.3234 167.764 64.3072 167.764 64.291 167.764L64.2856 167.775Z" fill="#263238"/>
<path d="M118.295 156.477H114.914V138.076C114.914 133.745 111.389 130.221 107.058 130.221C102.727 130.221 99.2022 133.745 99.2022 138.076V156.477H95.8207V138.076C95.8207 131.882 100.86 126.842 107.055 126.842C113.25 126.842 118.29 131.882 118.29 138.076V156.477H118.295Z" fill="#263238"/>
<path d="M120.633 148.291H93.4918C92.6237 148.291 91.92 148.995 91.92 149.863V166.148C91.92 167.016 92.6237 167.72 93.4918 167.72H120.633C121.501 167.72 122.205 167.016 122.205 166.148V149.863C122.205 148.995 121.501 148.291 120.633 148.291Z" fill="white" stroke="#263238"/>
<path d="M109.595 155.476C109.595 154.078 108.461 152.944 107.063 152.944C105.664 152.944 104.531 154.078 104.531 155.476C104.531 156.634 105.312 157.597 106.37 157.9V161.685H107.752V157.9C108.813 157.597 109.592 156.634 109.592 155.476H109.595Z" fill="#263238"/>
<path d="M93.5358 165.877C93.4655 165.877 93.4114 162.637 93.4114 158.641C93.4114 154.646 93.4682 151.405 93.5358 151.405C93.6034 151.405 93.6603 154.646 93.6603 158.641C93.6603 162.637 93.6034 165.877 93.5358 165.877Z" fill="#FAFAFA"/>
<path d="M105.078 158.72C105.078 158.72 104.959 158.679 104.781 158.552C104.602 158.425 104.364 158.206 104.129 157.887C103.656 157.267 103.225 156.142 103.507 154.927C103.802 153.715 104.692 152.904 105.39 152.563C105.744 152.384 106.055 152.295 106.271 152.26C106.488 152.225 106.61 152.227 106.612 152.244C106.623 152.292 106.133 152.338 105.476 152.72C104.83 153.085 104.023 153.867 103.75 154.987C103.491 156.107 103.861 157.17 104.275 157.787C104.692 158.422 105.108 158.682 105.078 158.72Z" fill="#FAFAFA"/>
<path d="M74.2576 139.088C73.2951 139.036 72.3686 138.851 71.4947 138.55C67.4741 137.168 64.5803 133.34 64.5803 128.833C64.5803 123.659 68.3904 119.379 73.3477 118.667C73.6095 118.629 73.8739 118.602 74.1408 118.584C75.2881 117.973 76.5483 117.549 77.8842 117.357C78.4219 117.281 78.9711 117.238 79.5307 117.238C79.5473 117.238 79.5653 117.238 79.582 117.238C78.6721 115.838 78.3295 114.18 78.6041 112.632C77.5146 114.533 75.3728 115.825 72.9063 115.825C70.4398 115.825 68.298 114.534 67.2072 112.633C67.5883 114.793 66.7747 117.167 64.8857 118.758C62.9979 120.35 60.5289 120.743 58.4769 119.99C60.1516 121.399 61.0461 123.741 60.6187 126.178C60.1914 128.616 58.5513 130.509 56.498 131.258C58.6809 131.257 60.869 132.474 62.1009 134.616C63.3329 136.76 63.2893 139.269 62.1959 141.167C63.8667 139.756 66.3204 139.277 68.6368 140.125C70.9531 140.972 72.5264 142.923 72.9037 145.082C73.281 142.924 74.853 140.973 77.1681 140.126C76.701 140.028 76.2441 139.902 75.8001 139.749C75.2676 139.566 74.7529 139.343 74.2589 139.086L74.2576 139.088Z" fill="url(#paint4_linear_2631_487)" stroke="#263238" stroke-width="0.75" stroke-linejoin="round"/>
<path d="M79.5265 118.561C79.0298 118.561 78.5422 118.6 78.0648 118.667C77.7606 118.711 77.4616 118.767 77.1678 118.838C72.6557 119.908 69.2986 123.976 69.2986 128.833C69.2986 133.339 72.1911 137.168 76.213 138.55C76.5261 138.658 76.8469 138.749 77.1729 138.827C77.9288 139.008 78.7167 139.104 79.5277 139.104C85.1768 139.104 89.7569 134.505 89.7569 128.833C89.7569 123.16 85.1768 118.561 79.5277 118.561H79.5265Z" fill="url(#paint5_linear_2631_487)" stroke="#263238" stroke-width="0.75" stroke-linejoin="round"/>
<path d="M147.959 166.956L148.078 175.949C148.078 175.949 157.196 174.944 159.392 166.183C161.587 157.422 162.269 143.529 155.103 140.738C147.932 137.953 137.528 130.512 137.89 136.147C138.16 140.371 150.48 147.655 150.48 147.655L132.255 147.417C132.255 147.417 131.298 150.624 132.168 153.42C133.044 156.216 132.011 164.203 147.959 166.961V166.956Z" fill="white"/>
<path d="M132.812 153.128C132.715 153.128 132.617 153.101 132.531 153.047C130.022 151.505 130.865 148.418 131.666 147.001C131.768 146.822 131.952 146.719 132.163 146.725L155.655 147.855C155.953 147.871 156.185 148.125 156.169 148.423C156.153 148.72 155.899 148.953 155.601 148.937L132.461 147.823C132.082 148.645 131.222 150.975 133.093 152.127C133.348 152.284 133.429 152.619 133.272 152.874C133.169 153.041 132.991 153.133 132.812 153.133V153.128Z" fill="#263238"/>
<path d="M153.946 162.283C153.919 162.283 153.887 162.283 153.86 162.278C153.157 162.164 136.576 159.433 133.98 158.584C131.049 157.627 131.082 152.971 131.087 152.776C131.087 152.625 131.152 152.484 131.266 152.381C131.379 152.279 131.531 152.235 131.677 152.246L155.574 154.566C155.872 154.593 156.088 154.858 156.061 155.156C156.034 155.453 155.769 155.664 155.471 155.642L132.196 153.382C132.282 154.534 132.655 157.011 134.321 157.557C136.836 158.379 153.865 161.18 154.038 161.213C154.33 161.261 154.53 161.537 154.482 161.835C154.439 162.1 154.211 162.289 153.946 162.289V162.283Z" fill="#263238"/>
<path d="M151.702 167.761C151.702 167.761 151.665 167.761 151.648 167.761C150.94 167.686 134.229 165.858 133.835 158.254C133.818 157.957 134.045 157.703 134.348 157.686C134.64 157.659 134.9 157.897 134.916 158.2C135.095 161.623 139.594 163.743 143.342 164.922C147.527 166.236 151.719 166.685 151.756 166.691C152.054 166.723 152.27 166.988 152.238 167.286C152.211 167.561 151.973 167.772 151.702 167.772V167.761Z" fill="#263238"/>
<path d="M155.888 140.235L140.945 133.519C140.383 133.264 139.739 133.27 139.182 133.529C138.625 133.789 138.209 134.281 138.041 134.876C137.414 137.126 138.279 139.538 140.194 140.873L151.215 148.569C151.458 148.737 151.794 148.677 151.967 148.434C152.134 148.19 152.075 147.855 151.832 147.682L140.81 139.986C139.269 138.91 138.577 136.974 139.08 135.168C139.161 134.876 139.361 134.638 139.637 134.508C139.907 134.384 140.221 134.378 140.497 134.503L155.433 141.22C163.042 144.805 160.76 159.79 159.424 166.064C158.505 170.406 154.465 173.17 150.577 174.873C150.431 174.938 150.28 175.003 150.134 175.068C149.755 175.295 149.349 175.452 148.922 175.544C146.148 176.155 142.768 174.63 140.15 172.569C137.533 170.509 137.273 170.006 136.662 169.406C136.457 169.189 136.116 169.173 135.9 169.379C135.694 169.568 135.667 169.882 135.83 170.098H135.84C135.84 170.098 135.862 170.12 135.873 170.136C136.3 170.595 141.913 177.274 148.36 176.712C148.733 176.679 149.095 176.609 149.452 176.501C149.744 176.393 150.036 176.274 150.334 176.155C154.665 174.381 159.414 171.331 160.49 166.291C164.508 147.401 159.338 141.863 155.893 140.241L155.888 140.235Z" fill="#263238"/>
</g>
<defs>
<filter id="filter0_f_2631_487" x="-30.2568" y="-19.408" width="261.133" height="238.998" filterUnits="userSpaceOnUse" color-interpolation-filters="sRGB">
<feFlood flood-opacity="0" result="BackgroundImageFix"/>
<feBlend mode="normal" in="SourceGraphic" in2="BackgroundImageFix" result="shape"/>
<feGaussianBlur stdDeviation="25" result="effect1_foregroundBlur_2631_487"/>
</filter>
<linearGradient id="paint0_linear_2631_487" x1="46.7736" y1="-2.50684" x2="215.096" y2="94.6739" gradientUnits="userSpaceOnUse">
<stop stop-color="#AF579E"/>
<stop offset="0.34375" stop-color="#EAD982"/>
<stop offset="0.6875" stop-color="#5CCCB6"/>
<stop offset="1" stop-color="#49A1E6"/>
</linearGradient>
<linearGradient id="paint1_linear_2631_487" x1="9.71936" y1="15.979" x2="193.049" y2="15.9789" gradientUnits="userSpaceOnUse">
<stop stop-color="#AF579E"/>
<stop offset="0.34375" stop-color="#EAD982"/>
<stop offset="0.6875" stop-color="#5CCCB6"/>
<stop offset="1" stop-color="#49A1E6"/>
</linearGradient>
<linearGradient id="paint2_linear_2631_487" x1="30.8103" y1="37.0701" x2="171.958" y2="37.07" gradientUnits="userSpaceOnUse">
<stop stop-color="#AF579E"/>
<stop offset="0.34375" stop-color="#EAD982"/>
<stop offset="0.6875" stop-color="#5CCCB6"/>
<stop offset="1" stop-color="#49A1E6"/>
</linearGradient>
<linearGradient id="paint3_linear_2631_487" x1="50.8197" y1="56.5386" x2="151.948" y2="56.5385" gradientUnits="userSpaceOnUse">
<stop stop-color="#AF579E"/>
<stop offset="0.34375" stop-color="#EAD982"/>
<stop offset="0.6875" stop-color="#5CCCB6"/>
<stop offset="1" stop-color="#49A1E6"/>
</linearGradient>
<linearGradient id="paint4_linear_2631_487" x1="60.6952" y1="118.508" x2="82.9691" y2="133.72" gradientUnits="userSpaceOnUse">
<stop stop-color="#9CE7DD"/>
<stop offset="0.233633" stop-color="#8FE3EF"/>
<stop offset="0.619036" stop-color="#6894FC"/>
<stop offset="0.839301" stop-color="#A786F9"/>
<stop offset="1" stop-color="#D377EA"/>
</linearGradient>
<linearGradient id="paint5_linear_2631_487" x1="62.5887" y1="115.669" x2="86.7372" y2="136.556" gradientUnits="userSpaceOnUse">
<stop stop-color="#9CE7DD"/>
<stop offset="0.233633" stop-color="#8FE3EF"/>
<stop offset="0.619036" stop-color="#6894FC"/>
<stop offset="0.839301" stop-color="#A786F9"/>
<stop offset="1" stop-color="#D377EA"/>
</linearGradient>
<clipPath id="clip0_2631_487">
<rect width="200" height="200" fill="white"/>
</clipPath>
</defs>
</svg>
