<svg width="200" height="200" viewBox="0 0 200 200" fill="none" xmlns="http://www.w3.org/2000/svg">
<g clip-path="url(#clip0_335_6605)">
<path d="M165.066 46.6334C164.097 45.6645 162.944 44.9139 161.674 44.4089V47.8753C162.173 48.1687 162.643 48.5167 163.06 48.9329L169.562 55.4357L171.104 52.6654L165.073 46.6334H165.066Z" fill="white" stroke="#263238" stroke-width="0.75" stroke-linejoin="round"/>
<path d="M174.38 53.7027L169.924 58.1585L167.468 55.702C167.236 55.47 167.236 55.1015 167.468 54.8695L171.091 51.2463C171.323 51.0143 171.692 51.0143 171.924 51.2463L174.38 53.7027Z" fill="#263238" stroke="#263238" stroke-width="0.5" stroke-linejoin="round"/>
<path d="M182.527 60.7241L175.342 53.539C175.123 53.3207 174.762 53.3207 174.543 53.539L162.664 65.4187C162.015 66.0669 161.654 66.954 161.654 67.8683V79.748C161.661 81.7678 163.353 83.3986 165.373 83.3986H177.089C178.521 83.3986 179.681 82.2386 179.681 80.8057V68.9601L182.527 66.1147C184.014 64.6272 184.014 62.2185 182.527 60.731V60.7241ZM171.896 70.0382L169.842 79.8435C169.651 80.7579 168.846 81.4129 167.911 81.4129H165.673C164.588 81.4129 163.701 80.5327 163.701 79.441V69.0693C163.701 68.5439 163.912 68.0457 164.281 67.6704L166.144 65.8145C166.915 65.0502 168.157 65.0502 168.928 65.8145L171.35 68.2368C171.821 68.7076 172.019 69.3831 171.882 70.0314L171.896 70.0382Z" fill="#70BD92" stroke="#263238" stroke-width="0.75" stroke-linejoin="round"/>
<path d="M175.888 150.726C170.505 150.726 166.124 146.345 166.124 140.961V102.648C166.124 100.198 164.131 98.2054 161.682 98.2054V94.7937C166.015 94.7937 169.536 98.3214 169.536 102.648V140.961C169.536 144.469 172.388 147.314 175.888 147.314C177.71 147.314 179.416 146.502 180.569 145.083C181.716 143.663 182.159 141.828 181.791 140.047L174.101 103.494C172.981 98.1577 172.408 92.692 172.408 87.2401V83.4053H175.82V87.2401C175.82 92.4532 176.366 97.6868 177.437 102.791L185.127 139.344C185.714 142.142 185.018 145.015 183.217 147.232C181.415 149.45 178.747 150.726 175.888 150.726Z" fill="#263238" stroke="#263238" stroke-width="0.5" stroke-linejoin="round"/>
<path d="M176.01 85.0361H172.039C171.705 85.0361 171.432 84.7631 171.432 84.4288V83.3984H176.618V84.4288C176.618 84.7631 176.345 85.0361 176.01 85.0361Z" fill="#263238" stroke="#263238" stroke-width="0.5" stroke-linejoin="round"/>
<path d="M161.293 99.5154V93.8997H162.405C162.766 93.8997 163.06 94.1931 163.06 94.5547V98.8603C163.06 99.222 162.766 99.5154 162.405 99.5154H161.293Z" fill="#70BD92" stroke="#263238" stroke-width="0.5" stroke-linejoin="round"/>
<path d="M146.847 24H70.2126C69.2366 24 68.4453 24.7912 68.4453 25.7673V32.2428C68.4453 33.2188 69.2366 34.0101 70.2126 34.0101H146.847C147.823 34.0101 148.614 33.2188 148.614 32.2428V25.7673C148.614 24.7912 147.823 24 146.847 24Z" fill="#263238" stroke="#263238" stroke-width="0.5" stroke-linejoin="round"/>
<path d="M67.0671 27.5754H149.993C156.455 27.5754 161.702 32.8227 161.702 39.2845V167.17H55.358V39.2845C55.358 32.8227 60.6053 27.5754 67.0671 27.5754Z" fill="#70BD92" stroke="#263238" stroke-width="0.75" stroke-linejoin="round"/>
<path d="M161.729 167.17H55.3374C54.5988 167.17 54 167.769 54 168.508V174.663C54 175.401 54.5988 176 55.3374 176H161.729C162.468 176 163.067 175.401 163.067 174.663V168.508C163.067 167.769 162.468 167.17 161.729 167.17Z" fill="#263238" stroke="#263238" stroke-width="0.5" stroke-linejoin="round"/>
<path d="M142.746 44.4089H74.4431V75.0123H142.746V44.4089Z" fill="white" stroke="#263238" stroke-width="0.5" stroke-linejoin="round"/>
<path d="M130.729 128.655C133.622 116.398 126.031 104.116 113.773 101.223C101.515 98.3295 89.2334 105.921 86.3404 118.179C83.4473 130.436 91.0388 142.718 103.296 145.611C115.554 148.504 127.836 140.913 130.729 128.655Z" fill="white" stroke="#263238" stroke-width="0.5" stroke-linejoin="round"/>
<path d="M108.533 149.361C94.2313 149.361 82.5973 137.727 82.5973 123.425C82.5973 109.123 94.2313 97.489 108.533 97.489C122.835 97.489 134.469 109.123 134.469 123.425C134.469 137.727 122.835 149.361 108.533 149.361ZM108.533 98.1714C94.6066 98.1714 83.2796 109.498 83.2796 123.425C83.2796 137.352 94.6066 148.679 108.533 148.679C122.46 148.679 133.787 137.352 133.787 123.425C133.787 109.498 122.46 98.1714 108.533 98.1714Z" fill="#263238" stroke="#263238" stroke-width="0.5" stroke-linejoin="round"/>
<path d="M98.482 61.3749L97.9995 61.8574L107.698 71.5555L108.18 71.073L98.482 61.3749Z" fill="#263238" stroke="#263238" stroke-width="0.5" stroke-linejoin="round"/>
<path d="M115.636 71.9009C115.398 68.1821 112.313 65.2412 108.533 65.2412C104.753 65.2412 101.669 68.1821 101.43 71.9009H115.636Z" fill="#E8B78B" stroke="#263238" stroke-linejoin="round"/>
<path d="M132.047 71.928C131.242 59.5638 120.918 49.8745 108.533 49.8745C96.1486 49.8745 85.8179 59.557 85.0195 71.928L84.3372 71.8871C85.1628 59.1613 95.7938 49.199 108.533 49.199C121.273 49.199 131.904 59.1681 132.729 71.8871L132.047 71.928Z" fill="#263238" stroke="#263238" stroke-width="0.5" stroke-linejoin="round"/>
<path d="M137.178 71.5596H79.8812V72.2419H137.178V71.5596Z" fill="#263238" stroke="#263238" stroke-width="0.5" stroke-linejoin="round"/>
<path d="M66.9234 161.623C65.197 161.623 63.7914 160.217 63.7914 158.491C63.7914 156.765 65.197 155.359 66.9234 155.359C68.6497 155.359 70.0553 156.765 70.0553 158.491C70.0553 160.217 68.6497 161.623 66.9234 161.623ZM66.9234 156.034C65.5723 156.034 64.4737 157.133 64.4737 158.484C64.4737 159.835 65.5723 160.934 66.9234 160.934C68.2744 160.934 69.373 159.835 69.373 158.484C69.373 157.133 68.2744 156.034 66.9234 156.034Z" fill="#263238" stroke="#263238" stroke-width="0.5" stroke-linejoin="round"/>
<path d="M70.0556 144.953H63.7848V120.975H70.0556V144.953ZM64.4671 144.271H69.3732V121.658H64.4671V144.271Z" fill="#263238" stroke="#263238" stroke-width="0.5" stroke-linejoin="round"/>
<path d="M162.05 67.6772H161.367V80.3212H162.05V67.6772Z" fill="#263238" stroke="#263238" stroke-width="0.5" stroke-linejoin="round"/>
<path d="M161.995 93.8928H161.313V99.3994H161.995V93.8928Z" fill="#263238" stroke="#263238" stroke-width="0.5" stroke-linejoin="round"/>
<path d="M166.219 73.907L165.714 73.4498L170.845 67.7454L171.35 68.2025L166.219 73.907Z" fill="#263238" stroke="#263238" stroke-width="0.5" stroke-linejoin="round"/>
<path d="M119.18 125.776C119.137 125.773 109.215 131.653 109.085 131.703C109.056 131.686 99.0476 125.763 99 125.769C99.0243 125.804 109.079 140 109.085 140C109.092 140 119.18 125.776 119.18 125.776Z" fill="#E8B78B" stroke="#263238" stroke-linejoin="round"/>
<path d="M109.09 107L99.0328 123.821L109.09 129.778L119.148 123.821L109.09 107Z" fill="#E8B78B" stroke="#263238" stroke-linejoin="round"/>
<path d="M16.084 42.1816C14.6191 41.5566 13.3691 41.127 12.334 40.8926C11.2988 40.6582 10.332 40.541 9.43359 40.541C8.30078 40.541 7.11914 40.8926 5.88867 41.5957C4.67773 42.2793 3.57422 43.1094 2.57812 44.0859V37.3184C3.57422 36.2637 4.6875 35.4727 5.91797 34.9453C7.16797 34.3984 8.55469 34.125 10.0781 34.125C11.25 34.125 12.4219 34.2422 13.5938 34.4766C14.7656 34.6914 16.2988 35.1992 18.1934 36C19.6582 36.625 20.9082 37.0547 21.9434 37.2891C22.998 37.5039 23.9648 37.6113 24.8438 37.6113C25.9961 37.6113 27.1777 37.2695 28.3887 36.5859C29.5996 35.9023 30.6934 35.0625 31.6699 34.0664V40.834C30.6934 41.8887 29.5801 42.6895 28.3301 43.2363C27.0996 43.7637 25.7129 44.0273 24.1699 44.0273C22.998 44.0273 21.8262 43.9199 20.6543 43.7051C19.502 43.4707 17.9785 42.9629 16.084 42.1816ZM16.084 53.9004C14.6191 53.2754 13.3691 52.8457 12.334 52.6113C11.2988 52.377 10.332 52.2598 9.43359 52.2598C8.30078 52.2598 7.11914 52.6113 5.88867 53.3145C4.67773 53.998 3.57422 54.8281 2.57812 55.8047V49.0371C3.57422 47.9824 4.6875 47.1914 5.91797 46.6641C7.16797 46.1172 8.55469 45.8438 10.0781 45.8438C11.25 45.8438 12.4219 45.9609 13.5938 46.1953C14.7656 46.4102 16.2988 46.918 18.1934 47.7188C19.6582 48.3438 20.9082 48.7734 21.9434 49.0078C22.998 49.2227 23.9648 49.3301 24.8438 49.3301C25.9961 49.3301 27.1777 48.9883 28.3887 48.3047C29.5996 47.6211 30.6934 46.7812 31.6699 45.7852V52.5527C30.6934 53.6074 29.5801 54.4082 28.3301 54.9551C27.0996 55.4824 25.7129 55.7461 24.1699 55.7461C22.998 55.7461 21.8262 55.6387 20.6543 55.4238C19.502 55.1895 17.9785 54.6816 16.084 53.9004ZM77.1484 37.4453C77.1484 42.0547 76.7839 46.1693 76.0547 49.7891C75.3516 53.4089 74.2057 56.4818 72.6172 59.0078C71.0547 61.5339 68.9974 63.4609 66.4453 64.7891C63.8932 66.1172 60.7943 66.7812 57.1484 66.7812C52.5651 66.7812 48.8021 65.6224 45.8594 63.3047C42.9167 60.9609 40.7422 57.6016 39.3359 53.2266C37.9297 48.8255 37.2266 43.5651 37.2266 37.4453C37.2266 31.2734 37.8646 26 39.1406 21.625C40.4427 17.224 42.5521 13.8516 45.4688 11.5078C48.3854 9.16406 52.2786 7.99219 57.1484 7.99219C61.7057 7.99219 65.4557 9.16406 68.3984 11.5078C71.3672 13.8255 73.5677 17.1849 75 21.5859C76.4323 25.9609 77.1484 31.2474 77.1484 37.4453ZM49.2188 37.4453C49.2188 41.7943 49.4531 45.4271 49.9219 48.3438C50.4167 51.2344 51.237 53.4089 52.3828 54.8672C53.5286 56.3255 55.1172 57.0547 57.1484 57.0547C59.1536 57.0547 60.7292 56.3385 61.875 54.9062C63.0469 53.4479 63.8802 51.2734 64.375 48.3828C64.8698 45.4661 65.1172 41.8203 65.1172 37.4453C65.1172 33.0964 64.8698 29.4635 64.375 26.5469C63.8802 23.6302 63.0469 21.4427 61.875 19.9844C60.7292 18.5 59.1536 17.7578 57.1484 17.7578C55.1172 17.7578 53.5286 18.5 52.3828 19.9844C51.237 21.4427 50.4167 23.6302 49.9219 26.5469C49.4531 29.4635 49.2188 33.0964 49.2188 37.4453Z" fill="#DB9AC2"/>
<path d="M16.084 42.1816L15.7896 42.8715L15.7981 42.875L16.084 42.1816ZM5.88867 41.5957L6.25737 42.2488L6.26078 42.2469L5.88867 41.5957ZM2.57812 44.0859H1.82812V45.8715L3.10318 44.6215L2.57812 44.0859ZM2.57812 37.3184L2.03287 36.8034L1.82812 37.0202V37.3184H2.57812ZM5.91797 34.9453L6.21342 35.6347L6.21858 35.6324L5.91797 34.9453ZM13.5938 34.4766L13.4466 35.2121L13.4585 35.2143L13.5938 34.4766ZM18.1934 36L18.4877 35.3102L18.4854 35.3092L18.1934 36ZM21.9434 37.2891L21.7777 38.0205L21.7857 38.0223L21.7937 38.024L21.9434 37.2891ZM28.3887 36.5859L28.02 35.9328L28.3887 36.5859ZM31.6699 34.0664H32.4199V32.2301L31.1344 33.5414L31.6699 34.0664ZM31.6699 40.834L32.2202 41.3435L32.4199 41.1279V40.834H31.6699ZM28.3301 43.2363L28.6255 43.9257L28.6307 43.9234L28.3301 43.2363ZM20.6543 43.7051L20.5048 44.44L20.5119 44.4415L20.5191 44.4428L20.6543 43.7051ZM16.084 53.9004L15.7896 54.5903L15.7981 54.5938L16.084 53.9004ZM5.88867 53.3145L6.25737 53.9676L6.26078 53.9656L5.88867 53.3145ZM2.57812 55.8047H1.82812V57.5903L3.10318 56.3402L2.57812 55.8047ZM2.57812 49.0371L2.03287 48.5221L1.82812 48.7389V49.0371H2.57812ZM5.91797 46.6641L6.21342 47.3534L6.21858 47.3512L5.91797 46.6641ZM13.5938 46.1953L13.4466 46.9308L13.4585 46.933L13.5938 46.1953ZM18.1934 47.7188L18.4877 47.0289L18.4854 47.0279L18.1934 47.7188ZM21.9434 49.0078L21.7777 49.7393L21.7857 49.7411L21.7937 49.7427L21.9434 49.0078ZM31.6699 45.7852H32.4199V43.9488L31.1344 45.2601L31.6699 45.7852ZM31.6699 52.5527L32.2202 53.0623L32.4199 52.8466V52.5527H31.6699ZM28.3301 54.9551L28.6255 55.6445L28.6307 55.6422L28.3301 54.9551ZM20.6543 55.4238L20.5048 56.1588L20.5119 56.1602L20.5191 56.1615L20.6543 55.4238ZM16.3783 41.4918C14.8903 40.8569 13.5948 40.4091 12.4996 40.1611L12.1684 41.6241C13.1435 41.8448 14.348 42.2564 15.7897 42.8715L16.3783 41.4918ZM12.4996 40.1611C11.4196 39.9166 10.3967 39.791 9.43359 39.791V41.291C10.2673 41.291 11.1781 41.3998 12.1684 41.6241L12.4996 40.1611ZM9.43359 39.791C8.14134 39.791 6.83228 40.1927 5.51657 40.9445L6.26078 42.2469C7.406 41.5925 8.46022 41.291 9.43359 41.291V39.791ZM5.51998 40.9426C4.25183 41.6585 3.09578 42.5281 2.05307 43.5504L3.10318 44.6215C4.05266 43.6906 5.10364 42.9001 6.25737 42.2488L5.51998 40.9426ZM3.32812 44.0859V37.3184H1.82812V44.0859H3.32812ZM3.12338 37.8333C4.05497 36.8469 5.08493 36.1183 6.21341 35.6347L5.62253 34.256C4.29007 34.827 3.09347 35.6804 2.03287 36.8034L3.12338 37.8333ZM6.21858 35.6324C7.3633 35.1316 8.64606 34.875 10.0781 34.875V33.375C8.46331 33.375 6.97263 33.6653 5.61735 34.2582L6.21858 35.6324ZM10.0781 34.875C11.1996 34.875 12.3223 34.9871 13.4467 35.212L13.7408 33.7411C12.5215 33.4973 11.3004 33.375 10.0781 33.375V34.875ZM13.4585 35.2143C14.5515 35.4147 16.0265 35.8984 17.9014 36.6908L18.4854 35.3092C16.5711 34.5001 14.9797 33.9682 13.729 33.7389L13.4585 35.2143ZM17.899 36.6898C19.387 37.3247 20.6825 37.7726 21.7777 38.0205L22.109 36.5576C21.1339 36.3368 19.9294 35.9253 18.4877 35.3102L17.899 36.6898ZM21.7937 38.024C22.8871 38.2467 23.9048 38.3613 24.8438 38.3613V36.8613C24.0248 36.8613 23.109 36.7611 22.0931 36.5542L21.7937 38.024ZM24.8438 38.3613C26.1495 38.3613 27.4571 37.9731 28.7574 37.2391L28.02 35.9328C26.8983 36.566 25.8426 36.8613 24.8438 36.8613V38.3613ZM28.7574 37.2391C30.0299 36.5207 31.1797 35.6377 32.2055 34.5915L31.1344 33.5414C30.207 34.4873 29.1694 35.284 28.02 35.9328L28.7574 37.2391ZM30.9199 34.0664V40.834H32.4199V34.0664H30.9199ZM31.1196 40.3244C30.2093 41.3075 29.1799 42.0459 28.0295 42.5492L28.6307 43.9234C29.9803 43.333 31.1774 42.4698 32.2202 41.3435L31.1196 40.3244ZM28.0346 42.547C26.9107 43.0287 25.6267 43.2773 24.1699 43.2773V44.7773C25.7991 44.7773 27.2885 44.4987 28.6255 43.9257L28.0346 42.547ZM24.1699 43.2773C23.0442 43.2773 21.9175 43.1742 20.7895 42.9674L20.5191 44.4428C21.7348 44.6657 22.9519 44.7773 24.1699 44.7773V43.2773ZM20.8038 42.9701C19.7201 42.7497 18.2476 42.2626 16.3699 41.4883L15.7981 42.875C17.7094 43.6632 19.2838 44.1917 20.5048 44.44L20.8038 42.9701ZM16.3783 53.2106C14.8903 52.5757 13.5948 52.1278 12.4996 51.8798L12.1684 53.3428C13.1435 53.5636 14.348 53.9751 15.7897 54.5902L16.3783 53.2106ZM12.4996 51.8798C11.4196 51.6353 10.3967 51.5098 9.43359 51.5098V53.0098C10.2673 53.0098 11.1781 53.1186 12.1684 53.3428L12.4996 51.8798ZM9.43359 51.5098C8.14134 51.5098 6.83228 51.9114 5.51657 52.6633L6.26078 53.9656C7.406 53.3112 8.46022 53.0098 9.43359 53.0098V51.5098ZM5.51998 52.6613C4.25183 53.3772 3.09578 54.2469 2.05307 55.2691L3.10318 56.3402C4.05266 55.4094 5.10364 54.6189 6.25737 53.9676L5.51998 52.6613ZM3.32812 55.8047V49.0371H1.82812V55.8047H3.32812ZM3.12338 49.5521C4.05497 48.5657 5.08493 47.8371 6.21341 47.3534L5.62253 45.9747C4.29007 46.5458 3.09347 47.3992 2.03287 48.5221L3.12338 49.5521ZM6.21858 47.3512C7.3633 46.8504 8.64606 46.5938 10.0781 46.5938V45.0938C8.46331 45.0938 6.97263 45.384 5.61735 45.9769L6.21858 47.3512ZM10.0781 46.5938C11.1996 46.5938 12.3223 46.7059 13.4467 46.9307L13.7408 45.4599C12.5215 45.216 11.3004 45.0938 10.0781 45.0938V46.5938ZM13.4585 46.933C14.5515 47.1334 16.0265 47.6171 17.9014 48.4096L18.4854 47.0279C16.5711 46.2188 14.9797 45.6869 13.729 45.4576L13.4585 46.933ZM17.899 48.4086C19.387 49.0435 20.6825 49.4913 21.7777 49.7393L22.109 48.2763C21.1339 48.0555 19.9294 47.644 18.4877 47.0289L17.899 48.4086ZM21.7937 49.7427C22.8871 49.9655 23.9048 50.0801 24.8438 50.0801V48.5801C24.0248 48.5801 23.109 48.4799 22.0931 48.2729L21.7937 49.7427ZM24.8438 50.0801C26.1495 50.0801 27.4571 49.6918 28.7574 48.9578L28.02 47.6516C26.8983 48.2847 25.8426 48.5801 24.8438 48.5801V50.0801ZM28.7574 48.9578C30.0299 48.2395 31.1797 47.3565 32.2055 46.3102L31.1344 45.2601C30.207 46.206 29.1694 47.0027 28.02 47.6516L28.7574 48.9578ZM30.9199 45.7852V52.5527H32.4199V45.7852H30.9199ZM31.1196 52.0432C30.2093 53.0263 29.1799 53.7647 28.0295 54.268L28.6307 55.6422C29.9803 55.0518 31.1774 54.1886 32.2202 53.0623L31.1196 52.0432ZM28.0346 54.2657C26.9107 54.7474 25.6267 54.9961 24.1699 54.9961V56.4961C25.7991 56.4961 27.2885 56.2174 28.6255 55.6444L28.0346 54.2657ZM24.1699 54.9961C23.0442 54.9961 21.9175 54.8929 20.7895 54.6861L20.5191 56.1615C21.7348 56.3844 22.9519 56.4961 24.1699 56.4961V54.9961ZM20.8038 54.6889C19.7201 54.4685 18.2476 53.9814 16.3699 53.207L15.7981 54.5938C17.7094 55.3819 19.2838 55.9104 20.5048 56.1588L20.8038 54.6889ZM76.0547 49.7891L75.3194 49.641L75.3185 49.646L76.0547 49.7891ZM72.6172 59.0078L71.9823 58.6085L71.9793 58.6133L72.6172 59.0078ZM45.8594 63.3047L45.3921 63.8914L45.3953 63.8939L45.8594 63.3047ZM39.3359 53.2266L38.6215 53.4548L38.6219 53.4561L39.3359 53.2266ZM39.1406 21.625L38.4214 21.4122L38.4206 21.415L39.1406 21.625ZM45.4688 11.5078L44.999 10.9232L45.4688 11.5078ZM68.3984 11.5078L67.9312 12.0945L67.9369 12.099L68.3984 11.5078ZM75 21.5859L74.2868 21.818L74.2872 21.8193L75 21.5859ZM49.9219 48.3438L49.1813 48.4628L49.1826 48.4703L49.9219 48.3438ZM61.875 54.9062L61.2904 54.4365L61.2893 54.4377L61.875 54.9062ZM64.375 48.3828L65.1143 48.5094L65.1144 48.5083L64.375 48.3828ZM64.375 26.5469L63.6356 26.6723L64.375 26.5469ZM61.875 19.9844L61.2813 20.4427L61.2858 20.4485L61.2904 20.4542L61.875 19.9844ZM52.3828 19.9844L52.9726 20.4478L52.9765 20.4427L52.3828 19.9844ZM49.9219 26.5469L49.1824 26.4214L49.1814 26.4279L49.9219 26.5469ZM76.3984 37.4453C76.3984 42.0166 76.0367 46.0802 75.3195 49.641L76.7899 49.9372C77.531 46.2584 77.8984 42.0927 77.8984 37.4453H76.3984ZM75.3185 49.646C74.629 53.1956 73.5114 56.177 71.9823 58.6086L73.2521 59.4071C74.9 56.7865 76.0742 53.6221 76.7909 49.9321L75.3185 49.646ZM71.9793 58.6133C70.4855 61.0284 68.5274 62.8601 66.0991 64.1238L66.7915 65.4544C69.4674 64.0618 71.6239 62.0394 73.255 59.4024L71.9793 58.6133ZM66.0991 64.1238C63.6787 65.3833 60.7052 66.0312 57.1484 66.0312V67.5312C60.8834 67.5312 64.1078 66.851 66.7915 65.4544L66.0991 64.1238ZM57.1484 66.0312C52.6947 66.0312 49.1064 64.9074 46.3234 62.7155L45.3953 63.8939C48.4978 66.3374 52.4355 67.5312 57.1484 67.5312V66.0312ZM46.3266 62.718C43.523 60.485 41.4211 57.2627 40.05 52.9971L38.6219 53.4561C40.0633 57.9404 42.3103 61.4368 45.3921 63.8913L46.3266 62.718ZM40.0504 52.9983C38.6739 48.6906 37.9766 43.5112 37.9766 37.4453H36.4766C36.4766 43.619 37.1855 48.9605 38.6215 53.4548L40.0504 52.9983ZM37.9766 37.4453C37.9766 31.3212 38.6101 26.1225 39.8606 21.835L38.4206 21.415C37.1191 25.8775 36.4766 31.2257 36.4766 37.4453H37.9766ZM39.8598 21.8378C41.1285 17.5496 43.1656 14.3207 45.9385 12.0924L44.999 10.9232C41.9386 13.3824 39.7569 16.8983 38.4214 21.4122L39.8598 21.8378ZM45.9385 12.0924C48.6864 9.88431 52.3975 8.74219 57.1484 8.74219V7.24219C52.1598 7.24219 48.0844 8.44382 44.999 10.9232L45.9385 12.0924ZM57.1484 8.74219C61.5731 8.74219 65.1476 9.87747 67.9312 12.0945L68.8657 10.9211C65.7638 8.45066 61.8384 7.24219 57.1484 7.24219V8.74219ZM67.9369 12.099C70.7633 14.3056 72.8901 17.5263 74.2868 21.818L75.7132 21.3538C74.2453 16.8435 71.971 13.3454 68.86 10.9166L67.9369 12.099ZM74.2872 21.8193C75.688 26.098 76.3984 31.3011 76.3984 37.4453H77.8984C77.8984 31.1937 77.1766 25.8239 75.7128 21.3526L74.2872 21.8193ZM48.4688 37.4453C48.4688 41.8174 48.7041 45.4931 49.1814 48.4628L50.6624 48.2247C50.2021 45.3611 49.9688 41.7712 49.9688 37.4453H48.4688ZM49.1826 48.4703C49.6874 51.4194 50.5379 53.7331 51.7931 55.3306L52.9725 54.4038C51.936 53.0846 51.1459 51.0493 50.6611 48.2172L49.1826 48.4703ZM51.7931 55.3306C53.0959 56.9887 54.9122 57.8047 57.1484 57.8047V56.3047C55.3222 56.3047 53.9614 55.6623 52.9725 54.4038L51.7931 55.3306ZM57.1484 57.8047C59.3572 57.8047 61.158 57.0031 62.4607 55.3748L61.2893 54.4377C60.3003 55.674 58.9501 56.3047 57.1484 56.3047V57.8047ZM62.4596 55.376C63.7443 53.7773 64.609 51.461 65.1143 48.5094L63.6357 48.2563C63.1514 51.0859 62.3494 53.1185 61.2904 54.4365L62.4596 55.376ZM65.1144 48.5083C65.6187 45.5356 65.8672 41.8444 65.8672 37.4453H64.3672C64.3672 41.7962 64.1209 45.3967 63.6356 48.2574L65.1144 48.5083ZM65.8672 37.4453C65.8672 33.0719 65.6187 29.3939 65.1144 26.4214L63.6356 26.6723C64.1209 29.5332 64.3672 33.1208 64.3672 37.4453H65.8672ZM65.1144 26.4214C64.6095 23.4449 63.7452 21.1144 62.4596 19.5146L61.2904 20.4542C62.3485 21.771 63.1509 23.8155 63.6356 26.6723L65.1144 26.4214ZM62.4687 19.5261C61.1698 17.8435 59.3674 17.0078 57.1484 17.0078V18.5078C58.9399 18.5078 60.2885 19.1565 61.2813 20.4427L62.4687 19.5261ZM57.1484 17.0078C54.9071 17.0078 53.0901 17.8408 51.7891 19.5261L52.9765 20.4427C53.9672 19.1592 55.3273 18.5078 57.1484 18.5078V17.0078ZM51.7931 19.521C50.5371 21.1195 49.687 23.4474 49.1824 26.4214L50.6613 26.6723C51.1464 23.813 51.9369 21.7659 52.9725 20.4477L51.7931 19.521ZM49.1814 26.4279C48.7041 29.3975 48.4688 33.0733 48.4688 37.4453H49.9688C49.9688 33.1195 50.2021 29.5295 50.6624 26.6659L49.1814 26.4279Z" fill="#263238"/>
</g>
<defs>
<clipPath id="clip0_335_6605">
<rect width="200" height="200" fill="white"/>
</clipPath>
</defs>
</svg>
